0
SECTION
2
HEADER
9
$INSUNITS
70
1
9
$ACADVER
1
AC1014
9
$HANDSEED
5
FFFF
0
ENDSEC
0
SECTION
2
TABLES
0
TABLE
2
VPORT
5
8
100
AcDbSymbolTable
0
ENDTAB
0
TABLE
2
LTYPE
5
5
100
AcDbSymbolTable
0
LTYPE
5
14
100
AcDbSymbolTableRecord
100
AcDbLinetypeTableRecord
2
BYBLOCK
70
0
0
LTYPE
5
15
100
AcDbSymbolTableRecord
100
AcDbLinetypeTableRecord
2
BYLAYER
70
0
0
ENDTAB
0
TABLE
2
LAYER
5
2
100
AcDbSymbolTable
70
2
0
LAYER
5
50
100
AcDbSymbolTableRecord
100
AcDbLayerTableRecord
2
0
70
0
6
CONTINUOUS
0
ENDTAB
0
TABLE
2
STYLE
5
3
100
AcDbSymbolTable
70
1
0
STYLE
5
11
100
AcDbSymbolTableRecord
100
AcDbTextStyleTableRecord
2
STANDARD
70
0
0
ENDTAB
0
TABLE
2
VIEW
5
6
100
AcDbSymbolTable
70
0
0
ENDTAB
0
TABLE
2
UCS
5
7
100
AcDbSymbolTable
70
0
0
ENDTAB
0
TABLE
2
APPID
5
9
100
AcDbSymbolTable
70
2
0
APPID
5
12
100
AcDbSymbolTableRecord
100
AcDbRegAppTableRecord
2
ACAD
70
0
0
ENDTAB
0
TABLE
2
DIMSTYLE
5
A
100
AcDbSymbolTable
70
1
0
ENDTAB
0
TABLE
2
BLOCK_RECORD
5
1
100
AcDbSymbolTable
70
1
0
BLOCK_RECORD
5
1F
100
AcDbSymbolTableRecord
100
AcDbBlockTableRecord
2
*MODEL_SPACE
0
BLOCK_RECORD
5
1B
100
AcDbSymbolTableRecord
100
AcDbBlockTableRecord
2
*PAPER_SPACE
0
ENDTAB
0
ENDSEC
0
SECTION
2
BLOCKS
0
BLOCK
5
20
100
AcDbEntity
100
AcDbBlockBegin
2
*MODEL_SPACE
0
ENDBLK
5
21
100
AcDbEntity
100
AcDbBlockEnd
0
BLOCK
5
1C
100
AcDbEntity
100
AcDbBlockBegin
2
*PAPER_SPACE
0
ENDBLK
5
1D
100
AcDbEntity
100
AcDbBlockEnd
0
ENDSEC
0
SECTION
2
ENTITIES
0
LWPOLYLINE
5
100
100
AcDbEntity
8
0
100
AcDbPolyline
90
22
70
1
43
0.0
10
-0.64586975812393943
20
0.27900054811236846
10
-0.64586975812393943
20
1.5230312926987994
10
-0.64960628293278644
20
1.5230312926987997
42
-0.41421356237309587
10
-0.7283464404131017
20
1.6017714501791147
10
-0.72834644041310148
20
1.6241471421977889
42
-0.41421356237309503
10
-0.62992124356270818
20
1.7225723390481822
10
0.62992124356270862
20
1.7225723390481826
42
-0.41421356237309276
10
0.72834644041310181
20
1.6241471421977889
10
0.72834644041310159
20
1.6023241181509085
42
-0.4162636348309095
10
0.64905555446953378
20
1.5235858866608338
10
0.64568388181344749
20
1.5236094695641493
10
0.64568388181344749
20
0.28068354322169431
42
0.13180420137577162
10
0.65229180419482014
20
0.25605182742761157
10
1.4376390649631803
20
-1.102337734495586
42
-0.26822190612059454
10
1.4376442432887169
20
-1.1614448938092645
10
1.1334466273284751
20
-1.6878184247095824
42
-0.26783632285966918
10
1.0908376360133694
20
-1.7124067728341315
10
-1.0934565308415976
20
-1.712406772834131
42
-0.26939940318092886
10
-1.1362083942011614
20
-1.687569531289294
10
-1.4383998724056568
20
-1.1575568283765152
42
-0.26717046718662341
10
-1.4381667868052705
20
-1.0986508972705162
10
-0.65252473118989518
20
0.25428762907106278
42
0.13228926994347179
0
LWPOLYLINE
5
101
100
AcDbEntity
8
0
100
AcDbPolyline
90
52
70
1
43
0.0
10
0.22345308083708229
20
-0.66529076379754926
10
0.96800338225580429
20
-0.66762642031257391
10
0.45932146866039392
20
0.21573083805296647
42
-0.13136628378504381
10
0.4527558953919279
20
0.24028915821214766
10
0.4527558953919279
20
1.5219237361180802
10
-0.45568715255089931
20
1.5219237361180802
10
-0.45568715255089931
20
0.24025858379380746
42
-0.13107133150380507
10
-0.46222427082347817
20
0.21574974380691342
10
-1.2250660689825323
20
-1.1125318082507403
42
0.26786193864087249
10
-1.2250243010901376
20
-1.1322112515624994
10
-1.0024227681343985
20
-1.5160294874057076
42
0.26742419134552881
10
-0.98539434396574654
20
-1.5258386194587845
10
0.98780475597067097
20
-1.5258386194587843
42
0.26856161190036476
10
1.0048749480317172
20
-1.515957116083464
10
1.225249157163975
20
-1.1322353571996633
42
0.26786193864088143
10
1.2252073892715802
20
-1.1125559138879044
10
1.0766925445974918
20
-0.85648083245227491
10
0.22926664314530293
20
-0.85648083245227491
10
0.47426747381257411
20
-1.1039137371276748
42
-0.41421356237309737
10
0.47399249136499227
20
-1.1595907573843829
10
0.39746601218032973
20
-1.2353650404890508
42
-0.40935973419171912
10
0.34225267338910159
20
-1.2355506327434476
10
0.088582675185377227
20
-0.98772907002444732
10
0.088582675185377227
20
-1.3385826463657102
42
-0.41421356237309576
10
0.049212596445219838
20
-1.3779527251058679
10
-0.059074745080448014
20
-1.3779527251058679
42
-0.41421356237309304
10
-0.098444823820605501
20
-1.3385826463657102
10
-0.098444823820605501
20
-0.98772907002444732
10
-0.35182907014125886
20
-1.2365500886882583
42
-0.41903065933149447
10
-0.40795356622176376
20
-1.2355792962229368
10
-0.48039672647884168
20
-1.1593433003503044
42
-0.40353123618063319
10
-0.48000324534416006
20
-1.1046954401036384
10
-0.23706317665394289
20
-0.85629919345864636
10
-0.58606257536287598
20
-0.85629919345864636
42
-0.41421356237309825
10
-0.62543265410303339
20
-0.81692911471848906
10
-0.62543265410303328
20
-0.7055427138519953
42
-0.41421356237309992
10
-0.58606257536287609
20
-0.66617263511183777
10
-0.23309180504284252
20
-0.66617263511183777
10
-0.48086184570633883
20
-0.41385864109518733
42
-0.41182012757712883
10
-0.48058477509707276
20
-0.3584097819338547
10
-0.40356526122724989
20
-0.28152993524477876
42
-0.41421356237309503
10
-0.34788758484921967
20
-0.28158046400631498
10
-0.098425194650419143
20
-0.53149605111226317
10
-0.098425194650419115
20
-0.17716535125074429
42
-0.4142135623730952
10
-0.059055115910261663
20
-0.13779527251058674
10
0.050034854682238304
20
-0.13779527251058679
42
-0.41421356237309431
10
0.089404933422395777
20
-0.17716535125074417
10
0.089404933422395777
20
-0.53540022172703861
10
0.34160994286779345
20
-0.282903907107596
42
-0.41421356237309681
10
0.3972876328995732
20
-0.28287177087491383
10
0.47362447843177558
20
-0.35912054653525571
42
-0.4142135623730962
10
0.47365661466445769
20
-0.41479823656703535
0
ENDSEC
0
SECTION
2
OBJECTS
0
DICTIONARY
5
C
100
AcDbDictionary
3
ACAD_GROUP
350
D
3
ACAD_MLINESTYLE
350
17
0
DICTIONARY
5
D
100
AcDbDictionary
0
DICTIONARY
5
1A
330
C
100
AcDbDictionary
0
DICTIONARY
5
17
100
AcDbDictionary
0
ENDSEC
0
EOF
