G04 #@! TF.GenerationSoftware,KiCad,Pcbnew,(5.0.0-rc2-dev-393-gbaef22df9)*
G04 #@! TF.CreationDate,2018-04-11T16:40:45-04:00*
G04 #@! TF.ProjectId,BAMF_2018_Badge,42414D465F323031385F42616467652E,rev?*
G04 #@! TF.SameCoordinates,Original*
G04 #@! TF.FileFunction,Legend,Bot*
G04 #@! TF.FilePolarity,Positive*
%FSLAX46Y46*%
G04 Gerber Fmt 4.6, Leading zero omitted, Abs format (unit mm)*
G04 Created by KiCad (PCBNEW (5.0.0-rc2-dev-393-gbaef22df9)) date 04/11/18 16:40:45*
%MOMM*%
%LPD*%
G01*
G04 APERTURE LIST*
%ADD10C,0.200000*%
%ADD11C,0.300000*%
%ADD12C,0.150000*%
G04 APERTURE END LIST*
D10*
X24348486Y-11889582D02*
X25041306Y-11489582D01*
X24711391Y-11680059D02*
X24482820Y-11284161D01*
X24119914Y-11493685D02*
X24812734Y-11093685D01*
X23872295Y-11064796D02*
X23943382Y-11111732D01*
X23995421Y-11125675D01*
X24080451Y-11120572D01*
X24278400Y-11006286D01*
X24325335Y-10935199D01*
X24339279Y-10883160D01*
X24334175Y-10798130D01*
X24277032Y-10699155D01*
X24205946Y-10652220D01*
X24153907Y-10638276D01*
X24068876Y-10643380D01*
X23870928Y-10757666D01*
X23823992Y-10828752D01*
X23810048Y-10880791D01*
X23815152Y-10965822D01*
X23872295Y-11064796D01*
X23510390Y-10437959D02*
X23581477Y-10484894D01*
X23666507Y-10479790D01*
X24260353Y-10136933D01*
X23186581Y-9877104D02*
X23879401Y-9477104D01*
X23219572Y-9858057D02*
X23224676Y-9943087D01*
X23300866Y-10075053D01*
X23371953Y-10121988D01*
X23423992Y-10135932D01*
X23509023Y-10130828D01*
X23706971Y-10016543D01*
X23753907Y-9945456D01*
X23767851Y-9893417D01*
X23762747Y-9808386D01*
X23686556Y-9676421D01*
X23615470Y-9629485D01*
X22462771Y-8623429D02*
X22926019Y-8663893D01*
X22691343Y-9019327D02*
X23384163Y-8619327D01*
X23231782Y-8355395D01*
X23160695Y-8308460D01*
X23108656Y-8294516D01*
X23023626Y-8299620D01*
X22924651Y-8356763D01*
X22877716Y-8427849D01*
X22863772Y-8479889D01*
X22868876Y-8564919D01*
X23021257Y-8828851D01*
X22654249Y-8116983D02*
X22520915Y-7886043D01*
X22100866Y-7996592D02*
X22291343Y-8326506D01*
X22984163Y-7926506D01*
X22793687Y-7596592D01*
X21929438Y-7699669D02*
X22622258Y-7299669D01*
X22527020Y-7134712D01*
X22436886Y-7054785D01*
X22332808Y-7026897D01*
X22247777Y-7032001D01*
X22096764Y-7075200D01*
X21997789Y-7132343D01*
X21884871Y-7241525D01*
X21837936Y-7312612D01*
X21810048Y-7416690D01*
X21834200Y-7534712D01*
X21929438Y-7699669D01*
X21488608Y-6326605D02*
X21183846Y-5798742D01*
X21072295Y-6215054D02*
X21600158Y-5910292D01*
X20874981Y-4349487D02*
X20946068Y-4396422D01*
X21003211Y-4495396D01*
X21027362Y-4613418D01*
X20999474Y-4717496D01*
X20952539Y-4788583D01*
X20839621Y-4897765D01*
X20740647Y-4954908D01*
X20589633Y-4998107D01*
X20504603Y-5003211D01*
X20400525Y-4975323D01*
X20310390Y-4895396D01*
X20272295Y-4829413D01*
X20248144Y-4711391D01*
X20262087Y-4659352D01*
X20493028Y-4526019D01*
X20569218Y-4657985D01*
X19796105Y-4004627D02*
X20259352Y-4045091D01*
X20024676Y-4400525D02*
X20717496Y-4000525D01*
X20565115Y-3736593D01*
X20494029Y-3689658D01*
X20441990Y-3675714D01*
X20356959Y-3680818D01*
X20257985Y-3737961D01*
X20211050Y-3809047D01*
X20197106Y-3861086D01*
X20202210Y-3946117D01*
X20354590Y-4210048D01*
X19987582Y-3498180D02*
X19854249Y-3267240D01*
X19434200Y-3377790D02*
X19624676Y-3707704D01*
X20317496Y-3307704D01*
X20127020Y-2977790D01*
X19625677Y-2871343D02*
X19492344Y-2640403D01*
X19072295Y-2750952D02*
X19262771Y-3080867D01*
X19955592Y-2680867D01*
X19765115Y-2350952D01*
X18900866Y-2454029D02*
X19593687Y-2054029D01*
X18672295Y-2058132D01*
X19365115Y-1658132D01*
X18696080Y-1032662D02*
X18543699Y-768731D01*
X18869877Y-800355D02*
X18276031Y-1143212D01*
X18191001Y-1148315D01*
X18119914Y-1101380D01*
X18081819Y-1035397D01*
X17891343Y-705483D02*
X17962429Y-752418D01*
X18014468Y-766362D01*
X18099499Y-761258D01*
X18297448Y-646972D01*
X18344383Y-575886D01*
X18358327Y-523847D01*
X18353223Y-438816D01*
X18296080Y-339842D01*
X18224993Y-292907D01*
X18172954Y-278963D01*
X18087924Y-284067D01*
X17889975Y-398352D01*
X17843040Y-469439D01*
X17829096Y-521478D01*
X17834200Y-606509D01*
X17891343Y-705483D01*
X17333858Y336298D02*
X17243724Y416225D01*
X17148486Y581182D01*
X17143382Y666213D01*
X17157326Y718252D01*
X17204261Y789339D01*
X17270244Y827434D01*
X17355274Y832538D01*
X17407313Y818594D01*
X17478400Y771659D01*
X17587582Y658740D01*
X17658669Y611805D01*
X17710708Y597861D01*
X17795738Y602965D01*
X17861721Y641060D01*
X17908656Y712147D01*
X17922600Y764186D01*
X17917496Y849217D01*
X17822258Y1014174D01*
X17732124Y1094101D01*
X17419890Y1177764D02*
X17267509Y1441695D01*
X17593687Y1410071D02*
X16999841Y1067214D01*
X16914810Y1062110D01*
X16843724Y1109046D01*
X16805628Y1175028D01*
X16500866Y1702892D02*
X16863772Y1912415D01*
X16948803Y1917519D01*
X17019890Y1870584D01*
X17096080Y1738618D01*
X17101184Y1653588D01*
X16533858Y1721939D02*
X16538962Y1636909D01*
X16634200Y1471951D01*
X16705287Y1425016D01*
X16790317Y1430120D01*
X16856300Y1468215D01*
X16903235Y1539302D01*
X16898131Y1624332D01*
X16802893Y1789290D01*
X16797789Y1874320D01*
X16310390Y2032806D02*
X16772271Y2299473D01*
X16640305Y2223282D02*
X16687240Y2294369D01*
X16701184Y2346408D01*
X16696080Y2431438D01*
X16657985Y2497421D01*
X16581794Y2629387D02*
X16429413Y2893319D01*
X16755592Y2861695D02*
X16161746Y2518838D01*
X16076715Y2513734D01*
X16005628Y2560669D01*
X15967533Y2626652D01*
D11*
X14178571Y26750000D02*
X12678571Y26750000D01*
X13750000Y26250000D01*
X12678571Y25750000D01*
X14178571Y25750000D01*
X14178571Y24392857D02*
X13392857Y24392857D01*
X13250000Y24464285D01*
X13178571Y24607142D01*
X13178571Y24892857D01*
X13250000Y25035714D01*
X14107142Y24392857D02*
X14178571Y24535714D01*
X14178571Y24892857D01*
X14107142Y25035714D01*
X13964285Y25107142D01*
X13821428Y25107142D01*
X13678571Y25035714D01*
X13607142Y24892857D01*
X13607142Y24535714D01*
X13535714Y24392857D01*
X13178571Y23678571D02*
X14178571Y23678571D01*
X13321428Y23678571D02*
X13250000Y23607142D01*
X13178571Y23464285D01*
X13178571Y23250000D01*
X13250000Y23107142D01*
X13392857Y23035714D01*
X14178571Y23035714D01*
X14178571Y22321428D02*
X13178571Y22321428D01*
X12678571Y22321428D02*
X12750000Y22392857D01*
X12821428Y22321428D01*
X12750000Y22250000D01*
X12678571Y22321428D01*
X12821428Y22321428D01*
X14178571Y20964285D02*
X13392857Y20964285D01*
X13250000Y21035714D01*
X13178571Y21178571D01*
X13178571Y21464285D01*
X13250000Y21607142D01*
X14107142Y20964285D02*
X14178571Y21107142D01*
X14178571Y21464285D01*
X14107142Y21607142D01*
X13964285Y21678571D01*
X13821428Y21678571D01*
X13678571Y21607142D01*
X13607142Y21464285D01*
X13607142Y21107142D01*
X13535714Y20964285D01*
X14107142Y19607142D02*
X14178571Y19750000D01*
X14178571Y20035714D01*
X14107142Y20178571D01*
X14035714Y20250000D01*
X13892857Y20321428D01*
X13464285Y20321428D01*
X13321428Y20250000D01*
X13250000Y20178571D01*
X13178571Y20035714D01*
X13178571Y19750000D01*
X13250000Y19607142D01*
X14178571Y18321428D02*
X13392857Y18321428D01*
X13250000Y18392857D01*
X13178571Y18535714D01*
X13178571Y18821428D01*
X13250000Y18964285D01*
X14107142Y18321428D02*
X14178571Y18464285D01*
X14178571Y18821428D01*
X14107142Y18964285D01*
X13964285Y19035714D01*
X13821428Y19035714D01*
X13678571Y18964285D01*
X13607142Y18821428D01*
X13607142Y18464285D01*
X13535714Y18321428D01*
X14178571Y17392857D02*
X14107142Y17535714D01*
X13964285Y17607142D01*
X12678571Y17607142D01*
X14178571Y14964285D02*
X14178571Y15678571D01*
X12678571Y15678571D01*
X14178571Y13821428D02*
X13392857Y13821428D01*
X13250000Y13892857D01*
X13178571Y14035714D01*
X13178571Y14321428D01*
X13250000Y14464285D01*
X14107142Y13821428D02*
X14178571Y13964285D01*
X14178571Y14321428D01*
X14107142Y14464285D01*
X13964285Y14535714D01*
X13821428Y14535714D01*
X13678571Y14464285D01*
X13607142Y14321428D01*
X13607142Y13964285D01*
X13535714Y13821428D01*
X14178571Y13107142D02*
X12678571Y13107142D01*
X13250000Y13107142D02*
X13178571Y12964285D01*
X13178571Y12678571D01*
X13250000Y12535714D01*
X13321428Y12464285D01*
X13464285Y12392857D01*
X13892857Y12392857D01*
X14035714Y12464285D01*
X14107142Y12535714D01*
X14178571Y12678571D01*
X14178571Y12964285D01*
X14107142Y13107142D01*
X14107142Y11821428D02*
X14178571Y11678571D01*
X14178571Y11392857D01*
X14107142Y11250000D01*
X13964285Y11178571D01*
X13892857Y11178571D01*
X13750000Y11250000D01*
X13678571Y11392857D01*
X13678571Y11607142D01*
X13607142Y11750000D01*
X13464285Y11821428D01*
X13392857Y11821428D01*
X13250000Y11750000D01*
X13178571Y11607142D01*
X13178571Y11392857D01*
X13250000Y11250000D01*
X-14107142Y33750000D02*
X-14035714Y33535714D01*
X-13964285Y33464285D01*
X-13821428Y33392857D01*
X-13607142Y33392857D01*
X-13464285Y33464285D01*
X-13392857Y33535714D01*
X-13321428Y33678571D01*
X-13321428Y34250000D01*
X-14821428Y34250000D01*
X-14821428Y33750000D01*
X-14750000Y33607142D01*
X-14678571Y33535714D01*
X-14535714Y33464285D01*
X-14392857Y33464285D01*
X-14250000Y33535714D01*
X-14178571Y33607142D01*
X-14107142Y33750000D01*
X-14107142Y34250000D01*
X-13321428Y32107142D02*
X-14107142Y32107142D01*
X-14250000Y32178571D01*
X-14321428Y32321428D01*
X-14321428Y32607142D01*
X-14250000Y32750000D01*
X-13392857Y32107142D02*
X-13321428Y32250000D01*
X-13321428Y32607142D01*
X-13392857Y32750000D01*
X-13535714Y32821428D01*
X-13678571Y32821428D01*
X-13821428Y32750000D01*
X-13892857Y32607142D01*
X-13892857Y32250000D01*
X-13964285Y32107142D01*
X-14321428Y31535714D02*
X-13321428Y31178571D01*
X-14321428Y30821428D02*
X-13321428Y31178571D01*
X-12964285Y31321428D01*
X-12892857Y31392857D01*
X-12821428Y31535714D01*
X-13750000Y29178571D02*
X-13750000Y28464285D01*
X-13321428Y29321428D02*
X-14821428Y28821428D01*
X-13321428Y28321428D01*
X-13321428Y27821428D02*
X-14321428Y27821428D01*
X-14035714Y27821428D02*
X-14178571Y27750000D01*
X-14250000Y27678571D01*
X-14321428Y27535714D01*
X-14321428Y27392857D01*
X-13392857Y26321428D02*
X-13321428Y26464285D01*
X-13321428Y26750000D01*
X-13392857Y26892857D01*
X-13535714Y26964285D01*
X-14107142Y26964285D01*
X-14250000Y26892857D01*
X-14321428Y26750000D01*
X-14321428Y26464285D01*
X-14250000Y26321428D01*
X-14107142Y26250000D01*
X-13964285Y26250000D01*
X-13821428Y26964285D01*
X-13321428Y24964285D02*
X-14107142Y24964285D01*
X-14250000Y25035714D01*
X-14321428Y25178571D01*
X-14321428Y25464285D01*
X-14250000Y25607142D01*
X-13392857Y24964285D02*
X-13321428Y25107142D01*
X-13321428Y25464285D01*
X-13392857Y25607142D01*
X-13535714Y25678571D01*
X-13678571Y25678571D01*
X-13821428Y25607142D01*
X-13892857Y25464285D01*
X-13892857Y25107142D01*
X-13964285Y24964285D01*
X-13321428Y23107142D02*
X-14821428Y23107142D01*
X-13750000Y22607142D01*
X-14821428Y22107142D01*
X-13321428Y22107142D01*
X-13321428Y20750000D02*
X-14107142Y20750000D01*
X-14250000Y20821428D01*
X-14321428Y20964285D01*
X-14321428Y21250000D01*
X-14250000Y21392857D01*
X-13392857Y20750000D02*
X-13321428Y20892857D01*
X-13321428Y21250000D01*
X-13392857Y21392857D01*
X-13535714Y21464285D01*
X-13678571Y21464285D01*
X-13821428Y21392857D01*
X-13892857Y21250000D01*
X-13892857Y20892857D01*
X-13964285Y20750000D01*
X-13321428Y20035714D02*
X-14821428Y20035714D01*
X-13892857Y19892857D02*
X-13321428Y19464285D01*
X-14321428Y19464285D02*
X-13750000Y20035714D01*
X-13392857Y18250000D02*
X-13321428Y18392857D01*
X-13321428Y18678571D01*
X-13392857Y18821428D01*
X-13535714Y18892857D01*
X-14107142Y18892857D01*
X-14250000Y18821428D01*
X-14321428Y18678571D01*
X-14321428Y18392857D01*
X-14250000Y18250000D01*
X-14107142Y18178571D01*
X-13964285Y18178571D01*
X-13821428Y18892857D01*
X-13321428Y17535714D02*
X-14321428Y17535714D01*
X-14035714Y17535714D02*
X-14178571Y17464285D01*
X-14250000Y17392857D01*
X-14321428Y17250000D01*
X-14321428Y17107142D01*
X-14107142Y14964285D02*
X-14107142Y15464285D01*
X-13321428Y15464285D02*
X-14821428Y15464285D01*
X-14821428Y14750000D01*
X-13321428Y13535714D02*
X-14107142Y13535714D01*
X-14250000Y13607142D01*
X-14321428Y13750000D01*
X-14321428Y14035714D01*
X-14250000Y14178571D01*
X-13392857Y13535714D02*
X-13321428Y13678571D01*
X-13321428Y14035714D01*
X-13392857Y14178571D01*
X-13535714Y14250000D01*
X-13678571Y14250000D01*
X-13821428Y14178571D01*
X-13892857Y14035714D01*
X-13892857Y13678571D01*
X-13964285Y13535714D01*
X-13321428Y12821428D02*
X-14321428Y12821428D01*
X-14821428Y12821428D02*
X-14750000Y12892857D01*
X-14678571Y12821428D01*
X-14750000Y12750000D01*
X-14821428Y12821428D01*
X-14678571Y12821428D01*
X-13321428Y12107142D02*
X-14321428Y12107142D01*
X-14035714Y12107142D02*
X-14178571Y12035714D01*
X-14250000Y11964285D01*
X-14321428Y11821428D01*
X-14321428Y11678571D01*
X-13392857Y10607142D02*
X-13321428Y10750000D01*
X-13321428Y11035714D01*
X-13392857Y11178571D01*
X-13535714Y11250000D01*
X-14107142Y11250000D01*
X-14250000Y11178571D01*
X-14321428Y11035714D01*
X-14321428Y10750000D01*
X-14250000Y10607142D01*
X-14107142Y10535714D01*
X-13964285Y10535714D01*
X-13821428Y11250000D01*
X-14678571Y8821428D02*
X-14750000Y8750000D01*
X-14821428Y8607142D01*
X-14821428Y8250000D01*
X-14750000Y8107142D01*
X-14678571Y8035714D01*
X-14535714Y7964285D01*
X-14392857Y7964285D01*
X-14178571Y8035714D01*
X-13321428Y8892857D01*
X-13321428Y7964285D01*
X-14821428Y7035714D02*
X-14821428Y6892857D01*
X-14750000Y6750000D01*
X-14678571Y6678571D01*
X-14535714Y6607142D01*
X-14250000Y6535714D01*
X-13892857Y6535714D01*
X-13607142Y6607142D01*
X-13464285Y6678571D01*
X-13392857Y6750000D01*
X-13321428Y6892857D01*
X-13321428Y7035714D01*
X-13392857Y7178571D01*
X-13464285Y7250000D01*
X-13607142Y7321428D01*
X-13892857Y7392857D01*
X-14250000Y7392857D01*
X-14535714Y7321428D01*
X-14678571Y7250000D01*
X-14750000Y7178571D01*
X-14821428Y7035714D01*
X-13321428Y5107142D02*
X-13321428Y5964285D01*
X-13321428Y5535714D02*
X-14821428Y5535714D01*
X-14607142Y5678571D01*
X-14464285Y5821428D01*
X-14392857Y5964285D01*
X-14178571Y4250000D02*
X-14250000Y4392857D01*
X-14321428Y4464285D01*
X-14464285Y4535714D01*
X-14535714Y4535714D01*
X-14678571Y4464285D01*
X-14750000Y4392857D01*
X-14821428Y4250000D01*
X-14821428Y3964285D01*
X-14750000Y3821428D01*
X-14678571Y3750000D01*
X-14535714Y3678571D01*
X-14464285Y3678571D01*
X-14321428Y3750000D01*
X-14250000Y3821428D01*
X-14178571Y3964285D01*
X-14178571Y4250000D01*
X-14107142Y4392857D01*
X-14035714Y4464285D01*
X-13892857Y4535714D01*
X-13607142Y4535714D01*
X-13464285Y4464285D01*
X-13392857Y4392857D01*
X-13321428Y4250000D01*
X-13321428Y3964285D01*
X-13392857Y3821428D01*
X-13464285Y3750000D01*
X-13607142Y3678571D01*
X-13892857Y3678571D01*
X-14035714Y3750000D01*
X-14107142Y3821428D01*
X-14178571Y3964285D01*
D12*
X18767949Y-16803848D02*
X18267949Y-15937822D01*
X18950962Y-16120835D02*
X18084936Y-16620835D01*
X25450962Y-27379165D02*
X24584936Y-27879165D01*
X11500000Y-38000000D02*
X10500000Y-38000000D01*
X11000000Y-37500000D02*
X11000000Y-38500000D01*
X24000000Y-37500000D02*
X24000000Y-38500000D01*
X-11500000Y-34000000D02*
X-10500000Y-34000000D01*
X-11000000Y-34500000D02*
X-11000000Y-33500000D01*
X-24000000Y-34500000D02*
X-24000000Y-33500000D01*
X-22232051Y-14803848D02*
X-21732051Y-13937822D01*
X-21549038Y-14620835D02*
X-22415064Y-14120835D01*
X-28049038Y-25879165D02*
X-28915064Y-25379165D01*
X-19016000Y-5524000D02*
X-19524000Y-5524000D01*
X-16730000Y-5778000D02*
X-16730000Y-5270000D01*
X-16476000Y-5524000D02*
X-16984000Y-5524000D01*
M02*
