M48
;DRILL file {KiCad (5.0.0-rc2-dev-393-gbaef22df9)} date 04/11/18 16:40:49
;FORMAT={-:-/ absolute / inch / decimal}
FMAT,2
INCH,TZ
T1C0.0157
T2C0.0236
T3C0.0276
T4C0.0300
T5C0.0394
T6C0.0433
T7C0.0492
T8C0.1181
T9C0.0787
%
G90
G05
M72
T1
X0.4409Y-1.0157
X0.5276Y-0.8504
T2
X-0.9547Y-1.4173
X-0.4232Y-1.4173
X-1.0581Y-1.0569
X-0.7923Y-0.5966
X0.7923Y-0.5966
X1.0581Y-1.0569
X0.4232Y-1.4173
X0.9547Y-1.4173
T3
X-1.35Y-1.1279
X-1.25Y-0.9547
X-1.1827Y-1.4803
X-1.0827Y-1.6535
X1.0827Y-1.6535
X1.1827Y-1.4803
X1.25Y-0.9547
X1.35Y-1.1279
T4
X0.Y-0.6594
X0.Y-0.8563
T5
X-0.4Y1.0744
X-0.4Y0.9744
X-0.4Y0.8744
X-0.4Y0.7744
X-0.4Y0.6744
X-0.4Y0.5744
X-0.4Y0.4744
X-0.4Y0.3744
X-0.4Y0.2744
X-0.4Y0.1744
X-0.4Y0.0744
X-0.4Y-0.0256
X0.23Y-0.2256
X0.4Y1.4744
X0.4Y1.3744
X0.4Y1.2744
X0.4Y1.1744
X0.4Y1.0744
X0.4Y0.9744
X0.4Y0.8744
X0.4Y0.7744
X0.4Y0.6744
X0.4Y0.5744
X0.4Y0.4744
X0.4Y0.3744
X0.4Y0.2744
X0.4Y0.1744
X0.4Y0.0744
X0.4Y-0.0256
T6
X0.6629Y-0.8646
X0.7613Y-1.035
X1.0891Y-0.6185
X1.1875Y-0.789
X0.5906Y-1.1713
X0.5906Y-1.6634
X0.7874Y-1.1713
X0.7874Y-1.6634
X-0.7874Y-1.1713
X-0.7874Y-1.6634
X-0.5906Y-1.1713
X-0.5906Y-1.6634
X-1.1875Y-0.789
X-1.0891Y-0.6185
X-0.7613Y-1.035
X-0.6629Y-0.8646
T7
X-0.7579Y-0.1575
X-0.6594Y-0.1575
T8
X0.5315Y1.5551
X-0.5315Y1.5551
T9
X0.5118Y-1.4173
X0.8661Y-1.4173
X-0.8661Y-1.4173
X-0.5118Y-1.4173
X-1.0138Y-0.9802
X-0.8366Y-0.6733
X0.8366Y-0.6733
X1.0138Y-0.9802
T0
M30
