G04 #@! TF.GenerationSoftware,KiCad,Pcbnew,(5.0.0-rc2-dev-393-gbaef22df9)*
G04 #@! TF.CreationDate,2018-04-11T16:40:45-04:00*
G04 #@! TF.ProjectId,BAMF_2018_Badge,42414D465F323031385F42616467652E,rev?*
G04 #@! TF.SameCoordinates,Original*
G04 #@! TF.FileFunction,Copper,L2,Bot,Signal*
G04 #@! TF.FilePolarity,Positive*
%FSLAX46Y46*%
G04 Gerber Fmt 4.6, Leading zero omitted, Abs format (unit mm)*
G04 Created by KiCad (PCBNEW (5.0.0-rc2-dev-393-gbaef22df9)) date 04/11/18 16:40:45*
%MOMM*%
%LPD*%
G01*
G04 APERTURE LIST*
%ADD10C,1.200000*%
%ADD11C,2.000000*%
%ADD12C,1.700000*%
%ADD13C,1.524000*%
%ADD14C,1.400000*%
%ADD15C,1.400000*%
%ADD16C,3.500000*%
%ADD17C,0.800000*%
%ADD18C,0.250000*%
%ADD19C,1.000000*%
%ADD20C,0.254000*%
G04 APERTURE END LIST*
D10*
X20125000Y-15154329D03*
X26875000Y-26845671D03*
D11*
X19337342Y-26290064D03*
X16837341Y-21959936D03*
X30162659Y-20040064D03*
X27662658Y-15709936D03*
D10*
X10750000Y-36000000D03*
X24250000Y-36000000D03*
D11*
X20000001Y-42250000D03*
X15000000Y-42250000D03*
X20000000Y-29750000D03*
X14999999Y-29750000D03*
D10*
X-10750000Y-36000000D03*
X-24250000Y-36000000D03*
D11*
X-20000001Y-29750000D03*
X-15000000Y-29750000D03*
X-20000000Y-42250000D03*
X-14999999Y-42250000D03*
D10*
X-20125000Y-15154329D03*
X-26875000Y-26845671D03*
D11*
X-30162659Y-20040064D03*
X-27662659Y-15709936D03*
X-19337341Y-26290064D03*
X-16837341Y-21959936D03*
D12*
X5842000Y-5730000D03*
X-10160000Y27290000D03*
X-10160000Y24750000D03*
X-10160000Y22210000D03*
X-10160000Y19670000D03*
X-10160000Y17130000D03*
X-10160000Y14590000D03*
X-10160000Y12050000D03*
X-10160000Y9510000D03*
X-10160000Y6970000D03*
X-10160000Y4430000D03*
X-10160000Y1890000D03*
X-10160000Y-650000D03*
X10160000Y-650000D03*
X10160000Y1890000D03*
X10160000Y4430000D03*
X10160000Y6970000D03*
X10160000Y9510000D03*
X10160000Y12050000D03*
X10160000Y14590000D03*
X10160000Y17130000D03*
X10160000Y19670000D03*
X10160000Y22210000D03*
X10160000Y24750000D03*
X10160000Y27290000D03*
X10160000Y29830000D03*
X10160000Y32370000D03*
X10160000Y34910000D03*
X10160000Y37450000D03*
D11*
X-19250000Y-4000000D03*
X-16750000Y-4000000D03*
D13*
X0Y-16750000D03*
X0Y-21750000D03*
D14*
X34290000Y-28649409D03*
D15*
X34290000Y-28649409D02*
X34290000Y-28649409D01*
D14*
X31750000Y-24250000D03*
X-31750000Y-24250000D03*
X-34290000Y-28649408D03*
D15*
X-34290000Y-28649408D02*
X-34290000Y-28649408D01*
D14*
X30040000Y-37600592D03*
D15*
X30040000Y-37600592D02*
X30040000Y-37600592D01*
D14*
X27500000Y-42000000D03*
X-27500000Y-42000000D03*
X-30040000Y-37600591D03*
D15*
X-30040000Y-37600591D02*
X-30040000Y-37600591D01*
D16*
X-13500000Y39500000D03*
X13500000Y39500000D03*
D17*
X13400000Y-21600000D03*
X11200000Y-25800000D03*
D18*
X27250000Y-42250000D02*
X27500000Y-42000000D01*
X20000000Y-42250000D02*
X27250000Y-42250000D01*
X-27250000Y-42250000D02*
X-27500000Y-42000000D01*
X-20000000Y-42250000D02*
X-27250000Y-42250000D01*
X31750000Y-23260051D02*
X31750000Y-24250000D01*
X31750000Y-21080128D02*
X31750000Y-23260051D01*
X30709936Y-20040064D02*
X31750000Y-21080128D01*
X30162659Y-20040064D02*
X30709936Y-20040064D01*
X-31750000Y-21627405D02*
X-31750000Y-24250000D01*
X-30162659Y-20040064D02*
X-31750000Y-21627405D01*
X-19337341Y-29087341D02*
X-20000000Y-29750000D01*
X-19337341Y-26290064D02*
X-19337341Y-29087341D01*
X19337341Y-29087341D02*
X20000000Y-29750000D01*
X19337341Y-26290064D02*
X19337341Y-29087341D01*
X-20000000Y-42250000D02*
X-20000000Y-29750000D01*
X20000000Y-42250000D02*
X20000000Y-29750000D01*
X-4540064Y-26290064D02*
X0Y-21750000D01*
X-19337341Y-26290064D02*
X-4540064Y-26290064D01*
X1077630Y-21750000D02*
X0Y-21750000D01*
X12476998Y-21750000D02*
X1077630Y-21750000D01*
X17017062Y-26290064D02*
X12476998Y-21750000D01*
X19337341Y-26290064D02*
X17017062Y-26290064D01*
X-20337340Y-25290065D02*
X-19337341Y-26290064D01*
X-24587342Y-21040063D02*
X-20337340Y-25290065D01*
X-29162660Y-21040063D02*
X-24587342Y-21040063D01*
X-30162659Y-20040064D02*
X-29162660Y-21040063D01*
X20337340Y-25290065D02*
X19337341Y-26290064D01*
X23217460Y-22409945D02*
X20337340Y-25290065D01*
X27792778Y-22409945D02*
X23217460Y-22409945D01*
X30162659Y-20040064D02*
X27792778Y-22409945D01*
X16477405Y-21600000D02*
X16837341Y-21959936D01*
X13400000Y-21600000D02*
X16477405Y-21600000D01*
X21412659Y-21959936D02*
X16837341Y-21959936D01*
X27662659Y-15709936D02*
X21412659Y-21959936D01*
X15000000Y-29600000D02*
X15000000Y-29750000D01*
X11200000Y-25800000D02*
X15000000Y-29600000D01*
X15000000Y-31164213D02*
X15000000Y-42250000D01*
X15000000Y-29750000D02*
X15000000Y-31164213D01*
D19*
X17923128Y-26290064D02*
X19337341Y-26290064D01*
X16462062Y-26290064D02*
X17923128Y-26290064D01*
X11710001Y-21538003D02*
X16462062Y-26290064D01*
X11710001Y28279999D02*
X11710001Y-21538003D01*
X10160000Y29830000D02*
X11710001Y28279999D01*
X-28748446Y-20040064D02*
X-30162659Y-20040064D01*
X-21425001Y-12716619D02*
X-28748446Y-20040064D01*
X-21425001Y-6175001D02*
X-21425001Y-12716619D01*
X-19250000Y-4000000D02*
X-21425001Y-6175001D01*
D20*
G36*
X27616677Y-14074936D02*
X27337437Y-14074936D01*
X26736506Y-14323850D01*
X26276573Y-14783783D01*
X26027659Y-15384714D01*
X26027659Y-16035158D01*
X26096482Y-16201311D01*
X21097858Y-21199936D01*
X18292250Y-21199936D01*
X18223427Y-21033783D01*
X17763494Y-20573850D01*
X17162563Y-20324936D01*
X16512119Y-20324936D01*
X15911188Y-20573850D01*
X15645038Y-20840000D01*
X14103711Y-20840000D01*
X13986280Y-20722569D01*
X13605874Y-20565000D01*
X13194126Y-20565000D01*
X12813720Y-20722569D01*
X12522569Y-21013720D01*
X12365000Y-21394126D01*
X12365000Y-21805874D01*
X12522569Y-22186280D01*
X12813720Y-22477431D01*
X13194126Y-22635000D01*
X13605874Y-22635000D01*
X13986280Y-22477431D01*
X14103711Y-22360000D01*
X15233342Y-22360000D01*
X15451255Y-22886089D01*
X15911188Y-23346022D01*
X16512119Y-23594936D01*
X17162563Y-23594936D01*
X17763494Y-23346022D01*
X18223427Y-22886089D01*
X18292250Y-22719936D01*
X21337812Y-22719936D01*
X21412659Y-22734824D01*
X21487506Y-22719936D01*
X21487511Y-22719936D01*
X21709196Y-22675840D01*
X21960588Y-22507865D01*
X22002990Y-22444406D01*
X24454773Y-19992623D01*
X28496302Y-19992623D01*
X28604991Y-20633921D01*
X28950820Y-21184810D01*
X29370566Y-21506892D01*
X29651001Y-21458909D01*
X30007116Y-20129867D01*
X28678074Y-19773751D01*
X28496302Y-19992623D01*
X24454773Y-19992623D01*
X27171284Y-17276113D01*
X27337437Y-17344936D01*
X27987881Y-17344936D01*
X28588812Y-17096022D01*
X29048745Y-16636089D01*
X29069053Y-16587062D01*
X30111641Y-18390394D01*
X29568802Y-18482396D01*
X29017913Y-18828225D01*
X28695831Y-19247971D01*
X28743814Y-19528406D01*
X30072856Y-19884521D01*
X30358703Y-18817728D01*
X30538386Y-19128521D01*
X30408005Y-19615110D01*
X30176800Y-19846315D01*
X30356408Y-20025923D01*
X30408007Y-19974324D01*
X31140922Y-20170708D01*
X31320821Y-20481872D01*
X30252462Y-20195607D01*
X29896346Y-21524649D01*
X30115218Y-21706421D01*
X30756516Y-21597732D01*
X31307405Y-21251903D01*
X31568949Y-20911052D01*
X35849315Y-28314662D01*
X35873000Y-28377728D01*
X35873000Y-29144681D01*
X31292027Y-37071447D01*
X31002481Y-36638111D01*
X30560891Y-36343050D01*
X30171485Y-36265592D01*
X29908515Y-36265592D01*
X29519109Y-36343050D01*
X29077519Y-36638111D01*
X28782458Y-37079701D01*
X28678846Y-37600592D01*
X28782458Y-38121483D01*
X29077519Y-38563073D01*
X29519109Y-38858134D01*
X29908515Y-38935592D01*
X30171485Y-38935592D01*
X30220330Y-38925876D01*
X28526769Y-41856358D01*
X27745348Y-42065740D01*
X27693749Y-42014141D01*
X27514141Y-42193749D01*
X27745346Y-42424954D01*
X27826500Y-42727824D01*
X27643048Y-42760132D01*
X27572197Y-42760132D01*
X27434260Y-42245348D01*
X27485859Y-42193749D01*
X27306251Y-42014141D01*
X27075045Y-42245347D01*
X26377934Y-42432137D01*
X26313604Y-42667236D01*
X26393236Y-42760132D01*
X21554667Y-42760132D01*
X21645908Y-42514539D01*
X21627437Y-42015354D01*
X26138933Y-42015354D01*
X26312194Y-42186792D01*
X27344457Y-41910197D01*
X27067863Y-40877934D01*
X26832764Y-40813604D01*
X26429540Y-41159254D01*
X26189284Y-41632900D01*
X26138933Y-42015354D01*
X21627437Y-42015354D01*
X21621856Y-41864540D01*
X21419387Y-41375736D01*
X21152532Y-41277073D01*
X20179605Y-42250000D01*
X20193748Y-42264143D01*
X20014143Y-42443748D01*
X20000000Y-42429605D01*
X19985858Y-42443748D01*
X19806253Y-42264143D01*
X19820395Y-42250000D01*
X18847468Y-41277073D01*
X18580613Y-41375736D01*
X18354092Y-41985461D01*
X18378144Y-42635460D01*
X18429785Y-42760132D01*
X16558408Y-42760132D01*
X16635000Y-42575222D01*
X16635000Y-41924778D01*
X16386086Y-41323847D01*
X16159707Y-41097468D01*
X19027073Y-41097468D01*
X20000000Y-42070395D01*
X20972927Y-41097468D01*
X20874264Y-40830613D01*
X20824686Y-40812194D01*
X27313208Y-40812194D01*
X27589803Y-41844457D01*
X28622066Y-41567863D01*
X28686396Y-41332764D01*
X28340746Y-40929540D01*
X27867100Y-40689284D01*
X27484646Y-40638933D01*
X27313208Y-40812194D01*
X20824686Y-40812194D01*
X20264539Y-40604092D01*
X19614540Y-40628144D01*
X19125736Y-40830613D01*
X19027073Y-41097468D01*
X16159707Y-41097468D01*
X15926153Y-40863914D01*
X15760000Y-40795091D01*
X15760000Y-35674778D01*
X20365000Y-35674778D01*
X20365000Y-36325222D01*
X20613914Y-36926153D01*
X21073847Y-37386086D01*
X21674778Y-37635000D01*
X22325222Y-37635000D01*
X22926153Y-37386086D01*
X23386086Y-36926153D01*
X23398831Y-36895384D01*
X23550429Y-37046982D01*
X24004343Y-37235000D01*
X24495657Y-37235000D01*
X24949571Y-37046982D01*
X25296982Y-36699571D01*
X25485000Y-36245657D01*
X25485000Y-35754343D01*
X25296982Y-35300429D01*
X24949571Y-34953018D01*
X24495657Y-34765000D01*
X24004343Y-34765000D01*
X23550429Y-34953018D01*
X23398831Y-35104616D01*
X23386086Y-35073847D01*
X22926153Y-34613914D01*
X22325222Y-34365000D01*
X21674778Y-34365000D01*
X21073847Y-34613914D01*
X20613914Y-35073847D01*
X20365000Y-35674778D01*
X15760000Y-35674778D01*
X15760000Y-31204909D01*
X15926153Y-31136086D01*
X16159707Y-30902532D01*
X19027073Y-30902532D01*
X19125736Y-31169387D01*
X19735461Y-31395908D01*
X20385460Y-31371856D01*
X20874264Y-31169387D01*
X20972927Y-30902532D01*
X20000000Y-29929605D01*
X19027073Y-30902532D01*
X16159707Y-30902532D01*
X16386086Y-30676153D01*
X16635000Y-30075222D01*
X16635000Y-29485461D01*
X18354092Y-29485461D01*
X18378144Y-30135460D01*
X18580613Y-30624264D01*
X18847468Y-30722927D01*
X19820395Y-29750000D01*
X20179605Y-29750000D01*
X21152532Y-30722927D01*
X21419387Y-30624264D01*
X21645908Y-30014539D01*
X21621856Y-29364540D01*
X21419387Y-28875736D01*
X21152532Y-28777073D01*
X20179605Y-29750000D01*
X19820395Y-29750000D01*
X18847468Y-28777073D01*
X18580613Y-28875736D01*
X18354092Y-29485461D01*
X16635000Y-29485461D01*
X16635000Y-29424778D01*
X16386086Y-28823847D01*
X16159707Y-28597468D01*
X19027073Y-28597468D01*
X20000000Y-29570395D01*
X20920986Y-28649409D01*
X32928846Y-28649409D01*
X33032458Y-29170300D01*
X33327519Y-29611890D01*
X33769109Y-29906951D01*
X34158515Y-29984409D01*
X34421485Y-29984409D01*
X34810891Y-29906951D01*
X35252481Y-29611890D01*
X35547542Y-29170300D01*
X35651154Y-28649409D01*
X35547542Y-28128518D01*
X35252481Y-27686928D01*
X34810891Y-27391867D01*
X34421485Y-27314409D01*
X34158515Y-27314409D01*
X33769109Y-27391867D01*
X33327519Y-27686928D01*
X33032458Y-28128518D01*
X32928846Y-28649409D01*
X20920986Y-28649409D01*
X20972927Y-28597468D01*
X20874264Y-28330613D01*
X20264539Y-28104092D01*
X19614540Y-28128144D01*
X19125736Y-28330613D01*
X19027073Y-28597468D01*
X16159707Y-28597468D01*
X15926153Y-28363914D01*
X15325222Y-28115000D01*
X14674778Y-28115000D01*
X14614691Y-28139889D01*
X14249451Y-27774649D01*
X19071028Y-27774649D01*
X19289900Y-27956421D01*
X19931198Y-27847732D01*
X20482087Y-27501903D01*
X20804169Y-27082157D01*
X20756186Y-26801722D01*
X19427144Y-26445607D01*
X19071028Y-27774649D01*
X14249451Y-27774649D01*
X12717425Y-26242623D01*
X17670984Y-26242623D01*
X17779673Y-26883921D01*
X18125502Y-27434810D01*
X18545248Y-27756892D01*
X18825683Y-27708909D01*
X19181798Y-26379867D01*
X18511500Y-26200261D01*
X19492884Y-26200261D01*
X20821926Y-26556377D01*
X21003698Y-26337505D01*
X20895009Y-25696207D01*
X20549180Y-25145318D01*
X20129434Y-24823236D01*
X19848999Y-24871219D01*
X19492884Y-26200261D01*
X18511500Y-26200261D01*
X17852756Y-26023751D01*
X17670984Y-26242623D01*
X12717425Y-26242623D01*
X12235000Y-25760199D01*
X12235000Y-25594126D01*
X12195172Y-25497971D01*
X17870513Y-25497971D01*
X17918496Y-25778406D01*
X19247538Y-26134521D01*
X19603654Y-24805479D01*
X19384782Y-24623707D01*
X18743484Y-24732396D01*
X18192595Y-25078225D01*
X17870513Y-25497971D01*
X12195172Y-25497971D01*
X12077431Y-25213720D01*
X11786280Y-24922569D01*
X11405874Y-24765000D01*
X10994126Y-24765000D01*
X10613720Y-24922569D01*
X10322569Y-25213720D01*
X10165000Y-25594126D01*
X10165000Y-26005874D01*
X10322569Y-26386280D01*
X10613720Y-26677431D01*
X10994126Y-26835000D01*
X11160199Y-26835000D01*
X13477757Y-29152559D01*
X13365000Y-29424778D01*
X13365000Y-30075222D01*
X13613914Y-30676153D01*
X14073847Y-31136086D01*
X14240000Y-31204909D01*
X14240000Y-34927761D01*
X13926153Y-34613914D01*
X13325222Y-34365000D01*
X12674778Y-34365000D01*
X12073847Y-34613914D01*
X11613914Y-35073847D01*
X11601169Y-35104616D01*
X11449571Y-34953018D01*
X10995657Y-34765000D01*
X10504343Y-34765000D01*
X10050429Y-34953018D01*
X9703018Y-35300429D01*
X9515000Y-35754343D01*
X9515000Y-36245657D01*
X9703018Y-36699571D01*
X10050429Y-37046982D01*
X10504343Y-37235000D01*
X10995657Y-37235000D01*
X11449571Y-37046982D01*
X11601169Y-36895384D01*
X11613914Y-36926153D01*
X12073847Y-37386086D01*
X12674778Y-37635000D01*
X13325222Y-37635000D01*
X13926153Y-37386086D01*
X14240001Y-37072238D01*
X14240001Y-40795091D01*
X14073847Y-40863914D01*
X13613914Y-41323847D01*
X13365000Y-41924778D01*
X13365000Y-42575222D01*
X13441592Y-42760132D01*
X-13441592Y-42760132D01*
X-13365000Y-42575222D01*
X-13365000Y-41924778D01*
X-13613914Y-41323847D01*
X-14073847Y-40863914D01*
X-14674778Y-40615000D01*
X-15325222Y-40615000D01*
X-15926153Y-40863914D01*
X-16386086Y-41323847D01*
X-16635000Y-41924778D01*
X-16635000Y-42575222D01*
X-16558408Y-42760132D01*
X-18445333Y-42760132D01*
X-18354092Y-42514539D01*
X-18378144Y-41864540D01*
X-18580613Y-41375736D01*
X-18847468Y-41277073D01*
X-19820395Y-42250000D01*
X-19806253Y-42264143D01*
X-19985858Y-42443748D01*
X-20000000Y-42429605D01*
X-20014143Y-42443748D01*
X-20193748Y-42264143D01*
X-20179605Y-42250000D01*
X-21152532Y-41277073D01*
X-21419387Y-41375736D01*
X-21645908Y-41985461D01*
X-21621856Y-42635460D01*
X-21570215Y-42760132D01*
X-26384886Y-42760132D01*
X-26313604Y-42667236D01*
X-26377934Y-42432137D01*
X-27075045Y-42245347D01*
X-27306251Y-42014141D01*
X-27485859Y-42193749D01*
X-27434260Y-42245348D01*
X-27572197Y-42760132D01*
X-27709491Y-42760132D01*
X-27829488Y-42738973D01*
X-27745347Y-42424955D01*
X-27514141Y-42193749D01*
X-27693749Y-42014141D01*
X-27745348Y-42065740D01*
X-28599379Y-41836902D01*
X-28886818Y-41332764D01*
X-28686396Y-41332764D01*
X-28622066Y-41567863D01*
X-27924955Y-41754653D01*
X-27693749Y-41985859D01*
X-27514141Y-41806251D01*
X-27485859Y-41806251D01*
X-27306251Y-41985859D01*
X-27254652Y-41934260D01*
X-26312194Y-42186792D01*
X-26138933Y-42015354D01*
X-26236662Y-41493327D01*
X-26464408Y-41144016D01*
X-26449474Y-41129082D01*
X-26481088Y-41097468D01*
X-20972927Y-41097468D01*
X-20000000Y-42070395D01*
X-19027073Y-41097468D01*
X-19125736Y-40830613D01*
X-19735461Y-40604092D01*
X-20385460Y-40628144D01*
X-20874264Y-40830613D01*
X-20972927Y-41097468D01*
X-26481088Y-41097468D01*
X-26520364Y-41058192D01*
X-26526724Y-41048437D01*
X-26541315Y-41037241D01*
X-26629082Y-40949474D01*
X-26640637Y-40961029D01*
X-26832764Y-40813604D01*
X-27067863Y-40877934D01*
X-27254653Y-41575045D01*
X-27485859Y-41806251D01*
X-27514141Y-41806251D01*
X-27565740Y-41754652D01*
X-27313208Y-40812194D01*
X-27484646Y-40638933D01*
X-28006673Y-40736662D01*
X-28355984Y-40964408D01*
X-28370918Y-40949474D01*
X-28441808Y-41020364D01*
X-28451563Y-41026724D01*
X-28462759Y-41041315D01*
X-28550526Y-41129082D01*
X-28538971Y-41140637D01*
X-28686396Y-41332764D01*
X-28886818Y-41332764D01*
X-30264091Y-38917171D01*
X-30171485Y-38935591D01*
X-29908515Y-38935591D01*
X-29519109Y-38858133D01*
X-29077519Y-38563072D01*
X-28782458Y-38121482D01*
X-28678846Y-37600591D01*
X-28782458Y-37079700D01*
X-29077519Y-36638110D01*
X-29519109Y-36343049D01*
X-29908515Y-36265591D01*
X-30171485Y-36265591D01*
X-30560891Y-36343049D01*
X-31002481Y-36638110D01*
X-31297542Y-37079700D01*
X-31301214Y-37098162D01*
X-32067404Y-35754343D01*
X-25485000Y-35754343D01*
X-25485000Y-36245657D01*
X-25296982Y-36699571D01*
X-24949571Y-37046982D01*
X-24495657Y-37235000D01*
X-24004343Y-37235000D01*
X-23550429Y-37046982D01*
X-23398831Y-36895384D01*
X-23386086Y-36926153D01*
X-22926153Y-37386086D01*
X-22325222Y-37635000D01*
X-21674778Y-37635000D01*
X-21073847Y-37386086D01*
X-20613914Y-36926153D01*
X-20365000Y-36325222D01*
X-20365000Y-35674778D01*
X-14635000Y-35674778D01*
X-14635000Y-36325222D01*
X-14386086Y-36926153D01*
X-13926153Y-37386086D01*
X-13325222Y-37635000D01*
X-12674778Y-37635000D01*
X-12073847Y-37386086D01*
X-11613914Y-36926153D01*
X-11601169Y-36895384D01*
X-11449571Y-37046982D01*
X-10995657Y-37235000D01*
X-10504343Y-37235000D01*
X-10050429Y-37046982D01*
X-9703018Y-36699571D01*
X-9515000Y-36245657D01*
X-9515000Y-35754343D01*
X-9703018Y-35300429D01*
X-10050429Y-34953018D01*
X-10504343Y-34765000D01*
X-10995657Y-34765000D01*
X-11449571Y-34953018D01*
X-11601169Y-35104616D01*
X-11613914Y-35073847D01*
X-12073847Y-34613914D01*
X-12674778Y-34365000D01*
X-13325222Y-34365000D01*
X-13926153Y-34613914D01*
X-14386086Y-35073847D01*
X-14635000Y-35674778D01*
X-20365000Y-35674778D01*
X-20613914Y-35073847D01*
X-21073847Y-34613914D01*
X-21674778Y-34365000D01*
X-22325222Y-34365000D01*
X-22926153Y-34613914D01*
X-23386086Y-35073847D01*
X-23398831Y-35104616D01*
X-23550429Y-34953018D01*
X-24004343Y-34765000D01*
X-24495657Y-34765000D01*
X-24949571Y-34953018D01*
X-25296982Y-35300429D01*
X-25485000Y-35754343D01*
X-32067404Y-35754343D01*
X-34833708Y-30902532D01*
X-20972927Y-30902532D01*
X-20874264Y-31169387D01*
X-20264539Y-31395908D01*
X-19614540Y-31371856D01*
X-19125736Y-31169387D01*
X-19027073Y-30902532D01*
X-20000000Y-29929605D01*
X-20972927Y-30902532D01*
X-34833708Y-30902532D01*
X-35866758Y-29090670D01*
X-35873000Y-29073741D01*
X-35873000Y-28649408D01*
X-35651154Y-28649408D01*
X-35547542Y-29170299D01*
X-35252481Y-29611889D01*
X-34810891Y-29906950D01*
X-34421485Y-29984408D01*
X-34158515Y-29984408D01*
X-33769109Y-29906950D01*
X-33327519Y-29611889D01*
X-33243043Y-29485461D01*
X-21645908Y-29485461D01*
X-21621856Y-30135460D01*
X-21419387Y-30624264D01*
X-21152532Y-30722927D01*
X-20179605Y-29750000D01*
X-19820395Y-29750000D01*
X-18847468Y-30722927D01*
X-18580613Y-30624264D01*
X-18354092Y-30014539D01*
X-18375915Y-29424778D01*
X-16635000Y-29424778D01*
X-16635000Y-30075222D01*
X-16386086Y-30676153D01*
X-15926153Y-31136086D01*
X-15325222Y-31385000D01*
X-14674778Y-31385000D01*
X-14073847Y-31136086D01*
X-13613914Y-30676153D01*
X-13365000Y-30075222D01*
X-13365000Y-29424778D01*
X-13613914Y-28823847D01*
X-14073847Y-28363914D01*
X-14674778Y-28115000D01*
X-15325222Y-28115000D01*
X-15926153Y-28363914D01*
X-16386086Y-28823847D01*
X-16635000Y-29424778D01*
X-18375915Y-29424778D01*
X-18378144Y-29364540D01*
X-18580613Y-28875736D01*
X-18847468Y-28777073D01*
X-19820395Y-29750000D01*
X-20179605Y-29750000D01*
X-21152532Y-28777073D01*
X-21419387Y-28875736D01*
X-21645908Y-29485461D01*
X-33243043Y-29485461D01*
X-33032458Y-29170299D01*
X-32928846Y-28649408D01*
X-32939177Y-28597468D01*
X-20972927Y-28597468D01*
X-20000000Y-29570395D01*
X-19027073Y-28597468D01*
X-19125736Y-28330613D01*
X-19735461Y-28104092D01*
X-20385460Y-28128144D01*
X-20874264Y-28330613D01*
X-20972927Y-28597468D01*
X-32939177Y-28597468D01*
X-33032458Y-28128517D01*
X-33327519Y-27686927D01*
X-33769109Y-27391866D01*
X-34158515Y-27314408D01*
X-34421485Y-27314408D01*
X-34810891Y-27391866D01*
X-35252481Y-27686927D01*
X-35547542Y-28128517D01*
X-35651154Y-28649408D01*
X-35873000Y-28649408D01*
X-35873000Y-28238953D01*
X-34921280Y-26600014D01*
X-28110000Y-26600014D01*
X-28110000Y-27091328D01*
X-27921982Y-27545242D01*
X-27574571Y-27892653D01*
X-27120657Y-28080671D01*
X-26629343Y-28080671D01*
X-26175429Y-27892653D01*
X-25828018Y-27545242D01*
X-25640000Y-27091328D01*
X-25640000Y-27082157D01*
X-20804169Y-27082157D01*
X-20389392Y-27583193D01*
X-19814451Y-27887363D01*
X-19289900Y-27956421D01*
X-19071028Y-27774649D01*
X-19427144Y-26445607D01*
X-20756186Y-26801722D01*
X-20804169Y-27082157D01*
X-25640000Y-27082157D01*
X-25640000Y-26600014D01*
X-25668125Y-26532114D01*
X-25424778Y-26532114D01*
X-24954951Y-26337505D01*
X-21003698Y-26337505D01*
X-20821926Y-26556377D01*
X-20163183Y-26379867D01*
X-19181798Y-26379867D01*
X-18825683Y-27708909D01*
X-18545248Y-27756892D01*
X-18044212Y-27342115D01*
X-17740042Y-26767174D01*
X-17670984Y-26242623D01*
X-17852756Y-26023751D01*
X-19181798Y-26379867D01*
X-20163183Y-26379867D01*
X-19492884Y-26200261D01*
X-19848999Y-24871219D01*
X-20129434Y-24823236D01*
X-20630470Y-25238013D01*
X-20934640Y-25812954D01*
X-21003698Y-26337505D01*
X-24954951Y-26337505D01*
X-24823847Y-26283200D01*
X-24363914Y-25823267D01*
X-24115000Y-25222336D01*
X-24115000Y-24805479D01*
X-19603654Y-24805479D01*
X-19247538Y-26134521D01*
X-17918496Y-25778406D01*
X-17870513Y-25497971D01*
X-18285290Y-24996935D01*
X-18860231Y-24692765D01*
X-19384782Y-24623707D01*
X-19603654Y-24805479D01*
X-24115000Y-24805479D01*
X-24115000Y-24571892D01*
X24115000Y-24571892D01*
X24115000Y-25222336D01*
X24363914Y-25823267D01*
X24823847Y-26283200D01*
X25424778Y-26532114D01*
X25668125Y-26532114D01*
X25640000Y-26600014D01*
X25640000Y-27091328D01*
X25828018Y-27545242D01*
X26175429Y-27892653D01*
X26629343Y-28080671D01*
X27120657Y-28080671D01*
X27574571Y-27892653D01*
X27921982Y-27545242D01*
X28110000Y-27091328D01*
X28110000Y-26600014D01*
X27921982Y-26146100D01*
X27574571Y-25798689D01*
X27208991Y-25647260D01*
X27295749Y-25437806D01*
X31563208Y-25437806D01*
X31734646Y-25611067D01*
X32256673Y-25513338D01*
X32605984Y-25285592D01*
X32620918Y-25300526D01*
X32691808Y-25229636D01*
X32701563Y-25223276D01*
X32712759Y-25208685D01*
X32800526Y-25120918D01*
X32788971Y-25109363D01*
X32936396Y-24917236D01*
X32872066Y-24682137D01*
X32174955Y-24495347D01*
X31943749Y-24264141D01*
X31764141Y-24443749D01*
X31815740Y-24495348D01*
X31563208Y-25437806D01*
X27295749Y-25437806D01*
X27385000Y-25222336D01*
X27385000Y-24571892D01*
X27245309Y-24234646D01*
X30388933Y-24234646D01*
X30486662Y-24756673D01*
X30714408Y-25105984D01*
X30699474Y-25120918D01*
X30770364Y-25191808D01*
X30776724Y-25201563D01*
X30791315Y-25212759D01*
X30879082Y-25300526D01*
X30890637Y-25288971D01*
X31082764Y-25436396D01*
X31317863Y-25372066D01*
X31504653Y-24674955D01*
X31735859Y-24443749D01*
X31556251Y-24264141D01*
X31504652Y-24315740D01*
X30562194Y-24063208D01*
X30388933Y-24234646D01*
X27245309Y-24234646D01*
X27136086Y-23970961D01*
X26747889Y-23582764D01*
X30563604Y-23582764D01*
X30627934Y-23817863D01*
X31325045Y-24004653D01*
X31556251Y-24235859D01*
X31735859Y-24056251D01*
X31764141Y-24056251D01*
X31943749Y-24235859D01*
X31995348Y-24184260D01*
X32937806Y-24436792D01*
X33111067Y-24265354D01*
X33013338Y-23743327D01*
X32785592Y-23394016D01*
X32800526Y-23379082D01*
X32729636Y-23308192D01*
X32723276Y-23298437D01*
X32708685Y-23287241D01*
X32620918Y-23199474D01*
X32609363Y-23211029D01*
X32417236Y-23063604D01*
X32182137Y-23127934D01*
X31995347Y-23825045D01*
X31764141Y-24056251D01*
X31735859Y-24056251D01*
X31684260Y-24004652D01*
X31936792Y-23062194D01*
X31765354Y-22888933D01*
X31243327Y-22986662D01*
X30894016Y-23214408D01*
X30879082Y-23199474D01*
X30808192Y-23270364D01*
X30798437Y-23276724D01*
X30787241Y-23291315D01*
X30699474Y-23379082D01*
X30711029Y-23390637D01*
X30563604Y-23582764D01*
X26747889Y-23582764D01*
X26676153Y-23511028D01*
X26075222Y-23262114D01*
X25424778Y-23262114D01*
X24823847Y-23511028D01*
X24363914Y-23970961D01*
X24115000Y-24571892D01*
X-24115000Y-24571892D01*
X-24363914Y-23970961D01*
X-24823847Y-23511028D01*
X-25424778Y-23262114D01*
X-26075222Y-23262114D01*
X-26676153Y-23511028D01*
X-27136086Y-23970961D01*
X-27385000Y-24571892D01*
X-27385000Y-25222336D01*
X-27208991Y-25647260D01*
X-27574571Y-25798689D01*
X-27921982Y-26146100D01*
X-28110000Y-26600014D01*
X-34921280Y-26600014D01*
X-33944103Y-24917236D01*
X-32936396Y-24917236D01*
X-32590746Y-25320460D01*
X-32117100Y-25560716D01*
X-31734646Y-25611067D01*
X-31563208Y-25437806D01*
X-31839803Y-24405543D01*
X-32872066Y-24682137D01*
X-32936396Y-24917236D01*
X-33944103Y-24917236D01*
X-33565559Y-24265354D01*
X-33111067Y-24265354D01*
X-32937806Y-24436792D01*
X-32575840Y-24339803D01*
X-31594457Y-24339803D01*
X-31317863Y-25372066D01*
X-31082764Y-25436396D01*
X-30679540Y-25090746D01*
X-30439284Y-24617100D01*
X-30388933Y-24234646D01*
X-30562194Y-24063208D01*
X-31594457Y-24339803D01*
X-32575840Y-24339803D01*
X-31905543Y-24160197D01*
X-32182137Y-23127934D01*
X-32417236Y-23063604D01*
X-32820460Y-23409254D01*
X-33060716Y-23882900D01*
X-33111067Y-24265354D01*
X-33565559Y-24265354D01*
X-32866893Y-23062194D01*
X-31936792Y-23062194D01*
X-31660197Y-24094457D01*
X-30627934Y-23817863D01*
X-30563604Y-23582764D01*
X-30909254Y-23179540D01*
X-31382900Y-22939284D01*
X-31765354Y-22888933D01*
X-31936792Y-23062194D01*
X-32866893Y-23062194D01*
X-31595656Y-20873024D01*
X-31214710Y-21333193D01*
X-30639769Y-21637363D01*
X-30115218Y-21706421D01*
X-30028876Y-21634714D01*
X-18472341Y-21634714D01*
X-18472341Y-22285158D01*
X-18223427Y-22886089D01*
X-17763494Y-23346022D01*
X-17162563Y-23594936D01*
X-16512119Y-23594936D01*
X-15911188Y-23346022D01*
X-15451255Y-22886089D01*
X-15386689Y-22730213D01*
X-800608Y-22730213D01*
X-731143Y-22972397D01*
X-207698Y-23159144D01*
X347368Y-23131362D01*
X731143Y-22972397D01*
X800608Y-22730213D01*
X0Y-21929605D01*
X-800608Y-22730213D01*
X-15386689Y-22730213D01*
X-15202341Y-22285158D01*
X-15202341Y-21634714D01*
X-15240619Y-21542302D01*
X-1409144Y-21542302D01*
X-1381362Y-22097368D01*
X-1222397Y-22481143D01*
X-980213Y-22550608D01*
X-179605Y-21750000D01*
X179605Y-21750000D01*
X980213Y-22550608D01*
X1222397Y-22481143D01*
X1409144Y-21957698D01*
X1381362Y-21402632D01*
X1222397Y-21018857D01*
X980213Y-20949392D01*
X179605Y-21750000D01*
X-179605Y-21750000D01*
X-980213Y-20949392D01*
X-1222397Y-21018857D01*
X-1409144Y-21542302D01*
X-15240619Y-21542302D01*
X-15451255Y-21033783D01*
X-15715251Y-20769787D01*
X-800608Y-20769787D01*
X0Y-21570395D01*
X800608Y-20769787D01*
X731143Y-20527603D01*
X207698Y-20340856D01*
X-347368Y-20368638D01*
X-731143Y-20527603D01*
X-800608Y-20769787D01*
X-15715251Y-20769787D01*
X-15911188Y-20573850D01*
X-16512119Y-20324936D01*
X-17162563Y-20324936D01*
X-17763494Y-20573850D01*
X-18223427Y-21033783D01*
X-18472341Y-21634714D01*
X-30028876Y-21634714D01*
X-29896346Y-21524649D01*
X-30252462Y-20195607D01*
X-31377305Y-20497007D01*
X-31196468Y-20185592D01*
X-30988500Y-20129867D01*
X-30007116Y-20129867D01*
X-29651001Y-21458909D01*
X-29370566Y-21506892D01*
X-28869530Y-21092115D01*
X-28565360Y-20517174D01*
X-28496302Y-19992623D01*
X-28678074Y-19773751D01*
X-30007116Y-20129867D01*
X-30988500Y-20129867D01*
X-30408007Y-19974324D01*
X-30356408Y-20025923D01*
X-30176800Y-19846315D01*
X-30408005Y-19615110D01*
X-30552357Y-19076381D01*
X-30372423Y-18766521D01*
X-30072856Y-19884521D01*
X-28743814Y-19528406D01*
X-28695831Y-19247971D01*
X-29110608Y-18746935D01*
X-29685549Y-18442765D01*
X-30148991Y-18381752D01*
X-29084779Y-16549095D01*
X-29048745Y-16636089D01*
X-28588812Y-17096022D01*
X-27987881Y-17344936D01*
X-27337437Y-17344936D01*
X-26736506Y-17096022D01*
X-26418148Y-16777664D01*
X-22885000Y-16777664D01*
X-22885000Y-17428108D01*
X-22636086Y-18029039D01*
X-22176153Y-18488972D01*
X-21575222Y-18737886D01*
X-20924778Y-18737886D01*
X-20323847Y-18488972D01*
X-19863914Y-18029039D01*
X-19615000Y-17428108D01*
X-19615000Y-16777664D01*
X-19741560Y-16472119D01*
X-1397000Y-16472119D01*
X-1397000Y-17027881D01*
X-1184320Y-17541337D01*
X-791337Y-17934320D01*
X-277881Y-18147000D01*
X277881Y-18147000D01*
X791337Y-17934320D01*
X1184320Y-17541337D01*
X1397000Y-17027881D01*
X1397000Y-16472119D01*
X1184320Y-15958663D01*
X791337Y-15565680D01*
X277881Y-15353000D01*
X-277881Y-15353000D01*
X-791337Y-15565680D01*
X-1184320Y-15958663D01*
X-1397000Y-16472119D01*
X-19741560Y-16472119D01*
X-19791009Y-16352740D01*
X-19425429Y-16201311D01*
X-19078018Y-15853900D01*
X-18890000Y-15399986D01*
X-18890000Y-14908672D01*
X18890000Y-14908672D01*
X18890000Y-15399986D01*
X19078018Y-15853900D01*
X19425429Y-16201311D01*
X19791009Y-16352740D01*
X19615000Y-16777664D01*
X19615000Y-17428108D01*
X19863914Y-18029039D01*
X20323847Y-18488972D01*
X20924778Y-18737886D01*
X21575222Y-18737886D01*
X22176153Y-18488972D01*
X22636086Y-18029039D01*
X22885000Y-17428108D01*
X22885000Y-16777664D01*
X22636086Y-16176733D01*
X22176153Y-15716800D01*
X21575222Y-15467886D01*
X21331875Y-15467886D01*
X21360000Y-15399986D01*
X21360000Y-14908672D01*
X21171982Y-14454758D01*
X20824571Y-14107347D01*
X20370657Y-13919329D01*
X19879343Y-13919329D01*
X19425429Y-14107347D01*
X19078018Y-14454758D01*
X18890000Y-14908672D01*
X-18890000Y-14908672D01*
X-19078018Y-14454758D01*
X-19425429Y-14107347D01*
X-19879343Y-13919329D01*
X-20370657Y-13919329D01*
X-20824571Y-14107347D01*
X-21171982Y-14454758D01*
X-21360000Y-14908672D01*
X-21360000Y-15399986D01*
X-21331875Y-15467886D01*
X-21575222Y-15467886D01*
X-22176153Y-15716800D01*
X-22636086Y-16176733D01*
X-22885000Y-16777664D01*
X-26418148Y-16777664D01*
X-26276573Y-16636089D01*
X-26027659Y-16035158D01*
X-26027659Y-15384714D01*
X-26276573Y-14783783D01*
X-26736506Y-14323850D01*
X-27337437Y-14074936D01*
X-27648053Y-14074936D01*
X-23973464Y-7747000D01*
X23958207Y-7747000D01*
X27616677Y-14074936D01*
X27616677Y-14074936D01*
G37*
X27616677Y-14074936D02*
X27337437Y-14074936D01*
X26736506Y-14323850D01*
X26276573Y-14783783D01*
X26027659Y-15384714D01*
X26027659Y-16035158D01*
X26096482Y-16201311D01*
X21097858Y-21199936D01*
X18292250Y-21199936D01*
X18223427Y-21033783D01*
X17763494Y-20573850D01*
X17162563Y-20324936D01*
X16512119Y-20324936D01*
X15911188Y-20573850D01*
X15645038Y-20840000D01*
X14103711Y-20840000D01*
X13986280Y-20722569D01*
X13605874Y-20565000D01*
X13194126Y-20565000D01*
X12813720Y-20722569D01*
X12522569Y-21013720D01*
X12365000Y-21394126D01*
X12365000Y-21805874D01*
X12522569Y-22186280D01*
X12813720Y-22477431D01*
X13194126Y-22635000D01*
X13605874Y-22635000D01*
X13986280Y-22477431D01*
X14103711Y-22360000D01*
X15233342Y-22360000D01*
X15451255Y-22886089D01*
X15911188Y-23346022D01*
X16512119Y-23594936D01*
X17162563Y-23594936D01*
X17763494Y-23346022D01*
X18223427Y-22886089D01*
X18292250Y-22719936D01*
X21337812Y-22719936D01*
X21412659Y-22734824D01*
X21487506Y-22719936D01*
X21487511Y-22719936D01*
X21709196Y-22675840D01*
X21960588Y-22507865D01*
X22002990Y-22444406D01*
X24454773Y-19992623D01*
X28496302Y-19992623D01*
X28604991Y-20633921D01*
X28950820Y-21184810D01*
X29370566Y-21506892D01*
X29651001Y-21458909D01*
X30007116Y-20129867D01*
X28678074Y-19773751D01*
X28496302Y-19992623D01*
X24454773Y-19992623D01*
X27171284Y-17276113D01*
X27337437Y-17344936D01*
X27987881Y-17344936D01*
X28588812Y-17096022D01*
X29048745Y-16636089D01*
X29069053Y-16587062D01*
X30111641Y-18390394D01*
X29568802Y-18482396D01*
X29017913Y-18828225D01*
X28695831Y-19247971D01*
X28743814Y-19528406D01*
X30072856Y-19884521D01*
X30358703Y-18817728D01*
X30538386Y-19128521D01*
X30408005Y-19615110D01*
X30176800Y-19846315D01*
X30356408Y-20025923D01*
X30408007Y-19974324D01*
X31140922Y-20170708D01*
X31320821Y-20481872D01*
X30252462Y-20195607D01*
X29896346Y-21524649D01*
X30115218Y-21706421D01*
X30756516Y-21597732D01*
X31307405Y-21251903D01*
X31568949Y-20911052D01*
X35849315Y-28314662D01*
X35873000Y-28377728D01*
X35873000Y-29144681D01*
X31292027Y-37071447D01*
X31002481Y-36638111D01*
X30560891Y-36343050D01*
X30171485Y-36265592D01*
X29908515Y-36265592D01*
X29519109Y-36343050D01*
X29077519Y-36638111D01*
X28782458Y-37079701D01*
X28678846Y-37600592D01*
X28782458Y-38121483D01*
X29077519Y-38563073D01*
X29519109Y-38858134D01*
X29908515Y-38935592D01*
X30171485Y-38935592D01*
X30220330Y-38925876D01*
X28526769Y-41856358D01*
X27745348Y-42065740D01*
X27693749Y-42014141D01*
X27514141Y-42193749D01*
X27745346Y-42424954D01*
X27826500Y-42727824D01*
X27643048Y-42760132D01*
X27572197Y-42760132D01*
X27434260Y-42245348D01*
X27485859Y-42193749D01*
X27306251Y-42014141D01*
X27075045Y-42245347D01*
X26377934Y-42432137D01*
X26313604Y-42667236D01*
X26393236Y-42760132D01*
X21554667Y-42760132D01*
X21645908Y-42514539D01*
X21627437Y-42015354D01*
X26138933Y-42015354D01*
X26312194Y-42186792D01*
X27344457Y-41910197D01*
X27067863Y-40877934D01*
X26832764Y-40813604D01*
X26429540Y-41159254D01*
X26189284Y-41632900D01*
X26138933Y-42015354D01*
X21627437Y-42015354D01*
X21621856Y-41864540D01*
X21419387Y-41375736D01*
X21152532Y-41277073D01*
X20179605Y-42250000D01*
X20193748Y-42264143D01*
X20014143Y-42443748D01*
X20000000Y-42429605D01*
X19985858Y-42443748D01*
X19806253Y-42264143D01*
X19820395Y-42250000D01*
X18847468Y-41277073D01*
X18580613Y-41375736D01*
X18354092Y-41985461D01*
X18378144Y-42635460D01*
X18429785Y-42760132D01*
X16558408Y-42760132D01*
X16635000Y-42575222D01*
X16635000Y-41924778D01*
X16386086Y-41323847D01*
X16159707Y-41097468D01*
X19027073Y-41097468D01*
X20000000Y-42070395D01*
X20972927Y-41097468D01*
X20874264Y-40830613D01*
X20824686Y-40812194D01*
X27313208Y-40812194D01*
X27589803Y-41844457D01*
X28622066Y-41567863D01*
X28686396Y-41332764D01*
X28340746Y-40929540D01*
X27867100Y-40689284D01*
X27484646Y-40638933D01*
X27313208Y-40812194D01*
X20824686Y-40812194D01*
X20264539Y-40604092D01*
X19614540Y-40628144D01*
X19125736Y-40830613D01*
X19027073Y-41097468D01*
X16159707Y-41097468D01*
X15926153Y-40863914D01*
X15760000Y-40795091D01*
X15760000Y-35674778D01*
X20365000Y-35674778D01*
X20365000Y-36325222D01*
X20613914Y-36926153D01*
X21073847Y-37386086D01*
X21674778Y-37635000D01*
X22325222Y-37635000D01*
X22926153Y-37386086D01*
X23386086Y-36926153D01*
X23398831Y-36895384D01*
X23550429Y-37046982D01*
X24004343Y-37235000D01*
X24495657Y-37235000D01*
X24949571Y-37046982D01*
X25296982Y-36699571D01*
X25485000Y-36245657D01*
X25485000Y-35754343D01*
X25296982Y-35300429D01*
X24949571Y-34953018D01*
X24495657Y-34765000D01*
X24004343Y-34765000D01*
X23550429Y-34953018D01*
X23398831Y-35104616D01*
X23386086Y-35073847D01*
X22926153Y-34613914D01*
X22325222Y-34365000D01*
X21674778Y-34365000D01*
X21073847Y-34613914D01*
X20613914Y-35073847D01*
X20365000Y-35674778D01*
X15760000Y-35674778D01*
X15760000Y-31204909D01*
X15926153Y-31136086D01*
X16159707Y-30902532D01*
X19027073Y-30902532D01*
X19125736Y-31169387D01*
X19735461Y-31395908D01*
X20385460Y-31371856D01*
X20874264Y-31169387D01*
X20972927Y-30902532D01*
X20000000Y-29929605D01*
X19027073Y-30902532D01*
X16159707Y-30902532D01*
X16386086Y-30676153D01*
X16635000Y-30075222D01*
X16635000Y-29485461D01*
X18354092Y-29485461D01*
X18378144Y-30135460D01*
X18580613Y-30624264D01*
X18847468Y-30722927D01*
X19820395Y-29750000D01*
X20179605Y-29750000D01*
X21152532Y-30722927D01*
X21419387Y-30624264D01*
X21645908Y-30014539D01*
X21621856Y-29364540D01*
X21419387Y-28875736D01*
X21152532Y-28777073D01*
X20179605Y-29750000D01*
X19820395Y-29750000D01*
X18847468Y-28777073D01*
X18580613Y-28875736D01*
X18354092Y-29485461D01*
X16635000Y-29485461D01*
X16635000Y-29424778D01*
X16386086Y-28823847D01*
X16159707Y-28597468D01*
X19027073Y-28597468D01*
X20000000Y-29570395D01*
X20920986Y-28649409D01*
X32928846Y-28649409D01*
X33032458Y-29170300D01*
X33327519Y-29611890D01*
X33769109Y-29906951D01*
X34158515Y-29984409D01*
X34421485Y-29984409D01*
X34810891Y-29906951D01*
X35252481Y-29611890D01*
X35547542Y-29170300D01*
X35651154Y-28649409D01*
X35547542Y-28128518D01*
X35252481Y-27686928D01*
X34810891Y-27391867D01*
X34421485Y-27314409D01*
X34158515Y-27314409D01*
X33769109Y-27391867D01*
X33327519Y-27686928D01*
X33032458Y-28128518D01*
X32928846Y-28649409D01*
X20920986Y-28649409D01*
X20972927Y-28597468D01*
X20874264Y-28330613D01*
X20264539Y-28104092D01*
X19614540Y-28128144D01*
X19125736Y-28330613D01*
X19027073Y-28597468D01*
X16159707Y-28597468D01*
X15926153Y-28363914D01*
X15325222Y-28115000D01*
X14674778Y-28115000D01*
X14614691Y-28139889D01*
X14249451Y-27774649D01*
X19071028Y-27774649D01*
X19289900Y-27956421D01*
X19931198Y-27847732D01*
X20482087Y-27501903D01*
X20804169Y-27082157D01*
X20756186Y-26801722D01*
X19427144Y-26445607D01*
X19071028Y-27774649D01*
X14249451Y-27774649D01*
X12717425Y-26242623D01*
X17670984Y-26242623D01*
X17779673Y-26883921D01*
X18125502Y-27434810D01*
X18545248Y-27756892D01*
X18825683Y-27708909D01*
X19181798Y-26379867D01*
X18511500Y-26200261D01*
X19492884Y-26200261D01*
X20821926Y-26556377D01*
X21003698Y-26337505D01*
X20895009Y-25696207D01*
X20549180Y-25145318D01*
X20129434Y-24823236D01*
X19848999Y-24871219D01*
X19492884Y-26200261D01*
X18511500Y-26200261D01*
X17852756Y-26023751D01*
X17670984Y-26242623D01*
X12717425Y-26242623D01*
X12235000Y-25760199D01*
X12235000Y-25594126D01*
X12195172Y-25497971D01*
X17870513Y-25497971D01*
X17918496Y-25778406D01*
X19247538Y-26134521D01*
X19603654Y-24805479D01*
X19384782Y-24623707D01*
X18743484Y-24732396D01*
X18192595Y-25078225D01*
X17870513Y-25497971D01*
X12195172Y-25497971D01*
X12077431Y-25213720D01*
X11786280Y-24922569D01*
X11405874Y-24765000D01*
X10994126Y-24765000D01*
X10613720Y-24922569D01*
X10322569Y-25213720D01*
X10165000Y-25594126D01*
X10165000Y-26005874D01*
X10322569Y-26386280D01*
X10613720Y-26677431D01*
X10994126Y-26835000D01*
X11160199Y-26835000D01*
X13477757Y-29152559D01*
X13365000Y-29424778D01*
X13365000Y-30075222D01*
X13613914Y-30676153D01*
X14073847Y-31136086D01*
X14240000Y-31204909D01*
X14240000Y-34927761D01*
X13926153Y-34613914D01*
X13325222Y-34365000D01*
X12674778Y-34365000D01*
X12073847Y-34613914D01*
X11613914Y-35073847D01*
X11601169Y-35104616D01*
X11449571Y-34953018D01*
X10995657Y-34765000D01*
X10504343Y-34765000D01*
X10050429Y-34953018D01*
X9703018Y-35300429D01*
X9515000Y-35754343D01*
X9515000Y-36245657D01*
X9703018Y-36699571D01*
X10050429Y-37046982D01*
X10504343Y-37235000D01*
X10995657Y-37235000D01*
X11449571Y-37046982D01*
X11601169Y-36895384D01*
X11613914Y-36926153D01*
X12073847Y-37386086D01*
X12674778Y-37635000D01*
X13325222Y-37635000D01*
X13926153Y-37386086D01*
X14240001Y-37072238D01*
X14240001Y-40795091D01*
X14073847Y-40863914D01*
X13613914Y-41323847D01*
X13365000Y-41924778D01*
X13365000Y-42575222D01*
X13441592Y-42760132D01*
X-13441592Y-42760132D01*
X-13365000Y-42575222D01*
X-13365000Y-41924778D01*
X-13613914Y-41323847D01*
X-14073847Y-40863914D01*
X-14674778Y-40615000D01*
X-15325222Y-40615000D01*
X-15926153Y-40863914D01*
X-16386086Y-41323847D01*
X-16635000Y-41924778D01*
X-16635000Y-42575222D01*
X-16558408Y-42760132D01*
X-18445333Y-42760132D01*
X-18354092Y-42514539D01*
X-18378144Y-41864540D01*
X-18580613Y-41375736D01*
X-18847468Y-41277073D01*
X-19820395Y-42250000D01*
X-19806253Y-42264143D01*
X-19985858Y-42443748D01*
X-20000000Y-42429605D01*
X-20014143Y-42443748D01*
X-20193748Y-42264143D01*
X-20179605Y-42250000D01*
X-21152532Y-41277073D01*
X-21419387Y-41375736D01*
X-21645908Y-41985461D01*
X-21621856Y-42635460D01*
X-21570215Y-42760132D01*
X-26384886Y-42760132D01*
X-26313604Y-42667236D01*
X-26377934Y-42432137D01*
X-27075045Y-42245347D01*
X-27306251Y-42014141D01*
X-27485859Y-42193749D01*
X-27434260Y-42245348D01*
X-27572197Y-42760132D01*
X-27709491Y-42760132D01*
X-27829488Y-42738973D01*
X-27745347Y-42424955D01*
X-27514141Y-42193749D01*
X-27693749Y-42014141D01*
X-27745348Y-42065740D01*
X-28599379Y-41836902D01*
X-28886818Y-41332764D01*
X-28686396Y-41332764D01*
X-28622066Y-41567863D01*
X-27924955Y-41754653D01*
X-27693749Y-41985859D01*
X-27514141Y-41806251D01*
X-27485859Y-41806251D01*
X-27306251Y-41985859D01*
X-27254652Y-41934260D01*
X-26312194Y-42186792D01*
X-26138933Y-42015354D01*
X-26236662Y-41493327D01*
X-26464408Y-41144016D01*
X-26449474Y-41129082D01*
X-26481088Y-41097468D01*
X-20972927Y-41097468D01*
X-20000000Y-42070395D01*
X-19027073Y-41097468D01*
X-19125736Y-40830613D01*
X-19735461Y-40604092D01*
X-20385460Y-40628144D01*
X-20874264Y-40830613D01*
X-20972927Y-41097468D01*
X-26481088Y-41097468D01*
X-26520364Y-41058192D01*
X-26526724Y-41048437D01*
X-26541315Y-41037241D01*
X-26629082Y-40949474D01*
X-26640637Y-40961029D01*
X-26832764Y-40813604D01*
X-27067863Y-40877934D01*
X-27254653Y-41575045D01*
X-27485859Y-41806251D01*
X-27514141Y-41806251D01*
X-27565740Y-41754652D01*
X-27313208Y-40812194D01*
X-27484646Y-40638933D01*
X-28006673Y-40736662D01*
X-28355984Y-40964408D01*
X-28370918Y-40949474D01*
X-28441808Y-41020364D01*
X-28451563Y-41026724D01*
X-28462759Y-41041315D01*
X-28550526Y-41129082D01*
X-28538971Y-41140637D01*
X-28686396Y-41332764D01*
X-28886818Y-41332764D01*
X-30264091Y-38917171D01*
X-30171485Y-38935591D01*
X-29908515Y-38935591D01*
X-29519109Y-38858133D01*
X-29077519Y-38563072D01*
X-28782458Y-38121482D01*
X-28678846Y-37600591D01*
X-28782458Y-37079700D01*
X-29077519Y-36638110D01*
X-29519109Y-36343049D01*
X-29908515Y-36265591D01*
X-30171485Y-36265591D01*
X-30560891Y-36343049D01*
X-31002481Y-36638110D01*
X-31297542Y-37079700D01*
X-31301214Y-37098162D01*
X-32067404Y-35754343D01*
X-25485000Y-35754343D01*
X-25485000Y-36245657D01*
X-25296982Y-36699571D01*
X-24949571Y-37046982D01*
X-24495657Y-37235000D01*
X-24004343Y-37235000D01*
X-23550429Y-37046982D01*
X-23398831Y-36895384D01*
X-23386086Y-36926153D01*
X-22926153Y-37386086D01*
X-22325222Y-37635000D01*
X-21674778Y-37635000D01*
X-21073847Y-37386086D01*
X-20613914Y-36926153D01*
X-20365000Y-36325222D01*
X-20365000Y-35674778D01*
X-14635000Y-35674778D01*
X-14635000Y-36325222D01*
X-14386086Y-36926153D01*
X-13926153Y-37386086D01*
X-13325222Y-37635000D01*
X-12674778Y-37635000D01*
X-12073847Y-37386086D01*
X-11613914Y-36926153D01*
X-11601169Y-36895384D01*
X-11449571Y-37046982D01*
X-10995657Y-37235000D01*
X-10504343Y-37235000D01*
X-10050429Y-37046982D01*
X-9703018Y-36699571D01*
X-9515000Y-36245657D01*
X-9515000Y-35754343D01*
X-9703018Y-35300429D01*
X-10050429Y-34953018D01*
X-10504343Y-34765000D01*
X-10995657Y-34765000D01*
X-11449571Y-34953018D01*
X-11601169Y-35104616D01*
X-11613914Y-35073847D01*
X-12073847Y-34613914D01*
X-12674778Y-34365000D01*
X-13325222Y-34365000D01*
X-13926153Y-34613914D01*
X-14386086Y-35073847D01*
X-14635000Y-35674778D01*
X-20365000Y-35674778D01*
X-20613914Y-35073847D01*
X-21073847Y-34613914D01*
X-21674778Y-34365000D01*
X-22325222Y-34365000D01*
X-22926153Y-34613914D01*
X-23386086Y-35073847D01*
X-23398831Y-35104616D01*
X-23550429Y-34953018D01*
X-24004343Y-34765000D01*
X-24495657Y-34765000D01*
X-24949571Y-34953018D01*
X-25296982Y-35300429D01*
X-25485000Y-35754343D01*
X-32067404Y-35754343D01*
X-34833708Y-30902532D01*
X-20972927Y-30902532D01*
X-20874264Y-31169387D01*
X-20264539Y-31395908D01*
X-19614540Y-31371856D01*
X-19125736Y-31169387D01*
X-19027073Y-30902532D01*
X-20000000Y-29929605D01*
X-20972927Y-30902532D01*
X-34833708Y-30902532D01*
X-35866758Y-29090670D01*
X-35873000Y-29073741D01*
X-35873000Y-28649408D01*
X-35651154Y-28649408D01*
X-35547542Y-29170299D01*
X-35252481Y-29611889D01*
X-34810891Y-29906950D01*
X-34421485Y-29984408D01*
X-34158515Y-29984408D01*
X-33769109Y-29906950D01*
X-33327519Y-29611889D01*
X-33243043Y-29485461D01*
X-21645908Y-29485461D01*
X-21621856Y-30135460D01*
X-21419387Y-30624264D01*
X-21152532Y-30722927D01*
X-20179605Y-29750000D01*
X-19820395Y-29750000D01*
X-18847468Y-30722927D01*
X-18580613Y-30624264D01*
X-18354092Y-30014539D01*
X-18375915Y-29424778D01*
X-16635000Y-29424778D01*
X-16635000Y-30075222D01*
X-16386086Y-30676153D01*
X-15926153Y-31136086D01*
X-15325222Y-31385000D01*
X-14674778Y-31385000D01*
X-14073847Y-31136086D01*
X-13613914Y-30676153D01*
X-13365000Y-30075222D01*
X-13365000Y-29424778D01*
X-13613914Y-28823847D01*
X-14073847Y-28363914D01*
X-14674778Y-28115000D01*
X-15325222Y-28115000D01*
X-15926153Y-28363914D01*
X-16386086Y-28823847D01*
X-16635000Y-29424778D01*
X-18375915Y-29424778D01*
X-18378144Y-29364540D01*
X-18580613Y-28875736D01*
X-18847468Y-28777073D01*
X-19820395Y-29750000D01*
X-20179605Y-29750000D01*
X-21152532Y-28777073D01*
X-21419387Y-28875736D01*
X-21645908Y-29485461D01*
X-33243043Y-29485461D01*
X-33032458Y-29170299D01*
X-32928846Y-28649408D01*
X-32939177Y-28597468D01*
X-20972927Y-28597468D01*
X-20000000Y-29570395D01*
X-19027073Y-28597468D01*
X-19125736Y-28330613D01*
X-19735461Y-28104092D01*
X-20385460Y-28128144D01*
X-20874264Y-28330613D01*
X-20972927Y-28597468D01*
X-32939177Y-28597468D01*
X-33032458Y-28128517D01*
X-33327519Y-27686927D01*
X-33769109Y-27391866D01*
X-34158515Y-27314408D01*
X-34421485Y-27314408D01*
X-34810891Y-27391866D01*
X-35252481Y-27686927D01*
X-35547542Y-28128517D01*
X-35651154Y-28649408D01*
X-35873000Y-28649408D01*
X-35873000Y-28238953D01*
X-34921280Y-26600014D01*
X-28110000Y-26600014D01*
X-28110000Y-27091328D01*
X-27921982Y-27545242D01*
X-27574571Y-27892653D01*
X-27120657Y-28080671D01*
X-26629343Y-28080671D01*
X-26175429Y-27892653D01*
X-25828018Y-27545242D01*
X-25640000Y-27091328D01*
X-25640000Y-27082157D01*
X-20804169Y-27082157D01*
X-20389392Y-27583193D01*
X-19814451Y-27887363D01*
X-19289900Y-27956421D01*
X-19071028Y-27774649D01*
X-19427144Y-26445607D01*
X-20756186Y-26801722D01*
X-20804169Y-27082157D01*
X-25640000Y-27082157D01*
X-25640000Y-26600014D01*
X-25668125Y-26532114D01*
X-25424778Y-26532114D01*
X-24954951Y-26337505D01*
X-21003698Y-26337505D01*
X-20821926Y-26556377D01*
X-20163183Y-26379867D01*
X-19181798Y-26379867D01*
X-18825683Y-27708909D01*
X-18545248Y-27756892D01*
X-18044212Y-27342115D01*
X-17740042Y-26767174D01*
X-17670984Y-26242623D01*
X-17852756Y-26023751D01*
X-19181798Y-26379867D01*
X-20163183Y-26379867D01*
X-19492884Y-26200261D01*
X-19848999Y-24871219D01*
X-20129434Y-24823236D01*
X-20630470Y-25238013D01*
X-20934640Y-25812954D01*
X-21003698Y-26337505D01*
X-24954951Y-26337505D01*
X-24823847Y-26283200D01*
X-24363914Y-25823267D01*
X-24115000Y-25222336D01*
X-24115000Y-24805479D01*
X-19603654Y-24805479D01*
X-19247538Y-26134521D01*
X-17918496Y-25778406D01*
X-17870513Y-25497971D01*
X-18285290Y-24996935D01*
X-18860231Y-24692765D01*
X-19384782Y-24623707D01*
X-19603654Y-24805479D01*
X-24115000Y-24805479D01*
X-24115000Y-24571892D01*
X24115000Y-24571892D01*
X24115000Y-25222336D01*
X24363914Y-25823267D01*
X24823847Y-26283200D01*
X25424778Y-26532114D01*
X25668125Y-26532114D01*
X25640000Y-26600014D01*
X25640000Y-27091328D01*
X25828018Y-27545242D01*
X26175429Y-27892653D01*
X26629343Y-28080671D01*
X27120657Y-28080671D01*
X27574571Y-27892653D01*
X27921982Y-27545242D01*
X28110000Y-27091328D01*
X28110000Y-26600014D01*
X27921982Y-26146100D01*
X27574571Y-25798689D01*
X27208991Y-25647260D01*
X27295749Y-25437806D01*
X31563208Y-25437806D01*
X31734646Y-25611067D01*
X32256673Y-25513338D01*
X32605984Y-25285592D01*
X32620918Y-25300526D01*
X32691808Y-25229636D01*
X32701563Y-25223276D01*
X32712759Y-25208685D01*
X32800526Y-25120918D01*
X32788971Y-25109363D01*
X32936396Y-24917236D01*
X32872066Y-24682137D01*
X32174955Y-24495347D01*
X31943749Y-24264141D01*
X31764141Y-24443749D01*
X31815740Y-24495348D01*
X31563208Y-25437806D01*
X27295749Y-25437806D01*
X27385000Y-25222336D01*
X27385000Y-24571892D01*
X27245309Y-24234646D01*
X30388933Y-24234646D01*
X30486662Y-24756673D01*
X30714408Y-25105984D01*
X30699474Y-25120918D01*
X30770364Y-25191808D01*
X30776724Y-25201563D01*
X30791315Y-25212759D01*
X30879082Y-25300526D01*
X30890637Y-25288971D01*
X31082764Y-25436396D01*
X31317863Y-25372066D01*
X31504653Y-24674955D01*
X31735859Y-24443749D01*
X31556251Y-24264141D01*
X31504652Y-24315740D01*
X30562194Y-24063208D01*
X30388933Y-24234646D01*
X27245309Y-24234646D01*
X27136086Y-23970961D01*
X26747889Y-23582764D01*
X30563604Y-23582764D01*
X30627934Y-23817863D01*
X31325045Y-24004653D01*
X31556251Y-24235859D01*
X31735859Y-24056251D01*
X31764141Y-24056251D01*
X31943749Y-24235859D01*
X31995348Y-24184260D01*
X32937806Y-24436792D01*
X33111067Y-24265354D01*
X33013338Y-23743327D01*
X32785592Y-23394016D01*
X32800526Y-23379082D01*
X32729636Y-23308192D01*
X32723276Y-23298437D01*
X32708685Y-23287241D01*
X32620918Y-23199474D01*
X32609363Y-23211029D01*
X32417236Y-23063604D01*
X32182137Y-23127934D01*
X31995347Y-23825045D01*
X31764141Y-24056251D01*
X31735859Y-24056251D01*
X31684260Y-24004652D01*
X31936792Y-23062194D01*
X31765354Y-22888933D01*
X31243327Y-22986662D01*
X30894016Y-23214408D01*
X30879082Y-23199474D01*
X30808192Y-23270364D01*
X30798437Y-23276724D01*
X30787241Y-23291315D01*
X30699474Y-23379082D01*
X30711029Y-23390637D01*
X30563604Y-23582764D01*
X26747889Y-23582764D01*
X26676153Y-23511028D01*
X26075222Y-23262114D01*
X25424778Y-23262114D01*
X24823847Y-23511028D01*
X24363914Y-23970961D01*
X24115000Y-24571892D01*
X-24115000Y-24571892D01*
X-24363914Y-23970961D01*
X-24823847Y-23511028D01*
X-25424778Y-23262114D01*
X-26075222Y-23262114D01*
X-26676153Y-23511028D01*
X-27136086Y-23970961D01*
X-27385000Y-24571892D01*
X-27385000Y-25222336D01*
X-27208991Y-25647260D01*
X-27574571Y-25798689D01*
X-27921982Y-26146100D01*
X-28110000Y-26600014D01*
X-34921280Y-26600014D01*
X-33944103Y-24917236D01*
X-32936396Y-24917236D01*
X-32590746Y-25320460D01*
X-32117100Y-25560716D01*
X-31734646Y-25611067D01*
X-31563208Y-25437806D01*
X-31839803Y-24405543D01*
X-32872066Y-24682137D01*
X-32936396Y-24917236D01*
X-33944103Y-24917236D01*
X-33565559Y-24265354D01*
X-33111067Y-24265354D01*
X-32937806Y-24436792D01*
X-32575840Y-24339803D01*
X-31594457Y-24339803D01*
X-31317863Y-25372066D01*
X-31082764Y-25436396D01*
X-30679540Y-25090746D01*
X-30439284Y-24617100D01*
X-30388933Y-24234646D01*
X-30562194Y-24063208D01*
X-31594457Y-24339803D01*
X-32575840Y-24339803D01*
X-31905543Y-24160197D01*
X-32182137Y-23127934D01*
X-32417236Y-23063604D01*
X-32820460Y-23409254D01*
X-33060716Y-23882900D01*
X-33111067Y-24265354D01*
X-33565559Y-24265354D01*
X-32866893Y-23062194D01*
X-31936792Y-23062194D01*
X-31660197Y-24094457D01*
X-30627934Y-23817863D01*
X-30563604Y-23582764D01*
X-30909254Y-23179540D01*
X-31382900Y-22939284D01*
X-31765354Y-22888933D01*
X-31936792Y-23062194D01*
X-32866893Y-23062194D01*
X-31595656Y-20873024D01*
X-31214710Y-21333193D01*
X-30639769Y-21637363D01*
X-30115218Y-21706421D01*
X-30028876Y-21634714D01*
X-18472341Y-21634714D01*
X-18472341Y-22285158D01*
X-18223427Y-22886089D01*
X-17763494Y-23346022D01*
X-17162563Y-23594936D01*
X-16512119Y-23594936D01*
X-15911188Y-23346022D01*
X-15451255Y-22886089D01*
X-15386689Y-22730213D01*
X-800608Y-22730213D01*
X-731143Y-22972397D01*
X-207698Y-23159144D01*
X347368Y-23131362D01*
X731143Y-22972397D01*
X800608Y-22730213D01*
X0Y-21929605D01*
X-800608Y-22730213D01*
X-15386689Y-22730213D01*
X-15202341Y-22285158D01*
X-15202341Y-21634714D01*
X-15240619Y-21542302D01*
X-1409144Y-21542302D01*
X-1381362Y-22097368D01*
X-1222397Y-22481143D01*
X-980213Y-22550608D01*
X-179605Y-21750000D01*
X179605Y-21750000D01*
X980213Y-22550608D01*
X1222397Y-22481143D01*
X1409144Y-21957698D01*
X1381362Y-21402632D01*
X1222397Y-21018857D01*
X980213Y-20949392D01*
X179605Y-21750000D01*
X-179605Y-21750000D01*
X-980213Y-20949392D01*
X-1222397Y-21018857D01*
X-1409144Y-21542302D01*
X-15240619Y-21542302D01*
X-15451255Y-21033783D01*
X-15715251Y-20769787D01*
X-800608Y-20769787D01*
X0Y-21570395D01*
X800608Y-20769787D01*
X731143Y-20527603D01*
X207698Y-20340856D01*
X-347368Y-20368638D01*
X-731143Y-20527603D01*
X-800608Y-20769787D01*
X-15715251Y-20769787D01*
X-15911188Y-20573850D01*
X-16512119Y-20324936D01*
X-17162563Y-20324936D01*
X-17763494Y-20573850D01*
X-18223427Y-21033783D01*
X-18472341Y-21634714D01*
X-30028876Y-21634714D01*
X-29896346Y-21524649D01*
X-30252462Y-20195607D01*
X-31377305Y-20497007D01*
X-31196468Y-20185592D01*
X-30988500Y-20129867D01*
X-30007116Y-20129867D01*
X-29651001Y-21458909D01*
X-29370566Y-21506892D01*
X-28869530Y-21092115D01*
X-28565360Y-20517174D01*
X-28496302Y-19992623D01*
X-28678074Y-19773751D01*
X-30007116Y-20129867D01*
X-30988500Y-20129867D01*
X-30408007Y-19974324D01*
X-30356408Y-20025923D01*
X-30176800Y-19846315D01*
X-30408005Y-19615110D01*
X-30552357Y-19076381D01*
X-30372423Y-18766521D01*
X-30072856Y-19884521D01*
X-28743814Y-19528406D01*
X-28695831Y-19247971D01*
X-29110608Y-18746935D01*
X-29685549Y-18442765D01*
X-30148991Y-18381752D01*
X-29084779Y-16549095D01*
X-29048745Y-16636089D01*
X-28588812Y-17096022D01*
X-27987881Y-17344936D01*
X-27337437Y-17344936D01*
X-26736506Y-17096022D01*
X-26418148Y-16777664D01*
X-22885000Y-16777664D01*
X-22885000Y-17428108D01*
X-22636086Y-18029039D01*
X-22176153Y-18488972D01*
X-21575222Y-18737886D01*
X-20924778Y-18737886D01*
X-20323847Y-18488972D01*
X-19863914Y-18029039D01*
X-19615000Y-17428108D01*
X-19615000Y-16777664D01*
X-19741560Y-16472119D01*
X-1397000Y-16472119D01*
X-1397000Y-17027881D01*
X-1184320Y-17541337D01*
X-791337Y-17934320D01*
X-277881Y-18147000D01*
X277881Y-18147000D01*
X791337Y-17934320D01*
X1184320Y-17541337D01*
X1397000Y-17027881D01*
X1397000Y-16472119D01*
X1184320Y-15958663D01*
X791337Y-15565680D01*
X277881Y-15353000D01*
X-277881Y-15353000D01*
X-791337Y-15565680D01*
X-1184320Y-15958663D01*
X-1397000Y-16472119D01*
X-19741560Y-16472119D01*
X-19791009Y-16352740D01*
X-19425429Y-16201311D01*
X-19078018Y-15853900D01*
X-18890000Y-15399986D01*
X-18890000Y-14908672D01*
X18890000Y-14908672D01*
X18890000Y-15399986D01*
X19078018Y-15853900D01*
X19425429Y-16201311D01*
X19791009Y-16352740D01*
X19615000Y-16777664D01*
X19615000Y-17428108D01*
X19863914Y-18029039D01*
X20323847Y-18488972D01*
X20924778Y-18737886D01*
X21575222Y-18737886D01*
X22176153Y-18488972D01*
X22636086Y-18029039D01*
X22885000Y-17428108D01*
X22885000Y-16777664D01*
X22636086Y-16176733D01*
X22176153Y-15716800D01*
X21575222Y-15467886D01*
X21331875Y-15467886D01*
X21360000Y-15399986D01*
X21360000Y-14908672D01*
X21171982Y-14454758D01*
X20824571Y-14107347D01*
X20370657Y-13919329D01*
X19879343Y-13919329D01*
X19425429Y-14107347D01*
X19078018Y-14454758D01*
X18890000Y-14908672D01*
X-18890000Y-14908672D01*
X-19078018Y-14454758D01*
X-19425429Y-14107347D01*
X-19879343Y-13919329D01*
X-20370657Y-13919329D01*
X-20824571Y-14107347D01*
X-21171982Y-14454758D01*
X-21360000Y-14908672D01*
X-21360000Y-15399986D01*
X-21331875Y-15467886D01*
X-21575222Y-15467886D01*
X-22176153Y-15716800D01*
X-22636086Y-16176733D01*
X-22885000Y-16777664D01*
X-26418148Y-16777664D01*
X-26276573Y-16636089D01*
X-26027659Y-16035158D01*
X-26027659Y-15384714D01*
X-26276573Y-14783783D01*
X-26736506Y-14323850D01*
X-27337437Y-14074936D01*
X-27648053Y-14074936D01*
X-23973464Y-7747000D01*
X23958207Y-7747000D01*
X27616677Y-14074936D01*
M02*
