G04 #@! TF.GenerationSoftware,KiCad,Pcbnew,(5.0.0-rc2-dev-393-gbaef22df9)*
G04 #@! TF.CreationDate,2018-04-11T16:40:45-04:00*
G04 #@! TF.ProjectId,BAMF_2018_Badge,42414D465F323031385F42616467652E,rev?*
G04 #@! TF.SameCoordinates,Original*
G04 #@! TF.FileFunction,Soldermask,Top*
G04 #@! TF.FilePolarity,Negative*
%FSLAX46Y46*%
G04 Gerber Fmt 4.6, Leading zero omitted, Abs format (unit mm)*
G04 Created by KiCad (PCBNEW (5.0.0-rc2-dev-393-gbaef22df9)) date 04/11/18 16:40:45*
%MOMM*%
%LPD*%
G01*
G04 APERTURE LIST*
%ADD10C,1.200000*%
%ADD11C,2.000000*%
%ADD12C,1.700000*%
%ADD13C,1.524000*%
%ADD14C,1.400000*%
%ADD15C,1.400000*%
%ADD16C,3.500000*%
G04 APERTURE END LIST*
D10*
X20125000Y-15154329D03*
X26875000Y-26845671D03*
D11*
X25750000Y-24897114D03*
X21250000Y-17102886D03*
X19337342Y-26290064D03*
X16837341Y-21959936D03*
X30162659Y-20040064D03*
X27662658Y-15709936D03*
D10*
X10750000Y-36000000D03*
X24250000Y-36000000D03*
D11*
X22000000Y-36000000D03*
X13000000Y-36000000D03*
X20000001Y-42250000D03*
X15000000Y-42250000D03*
X20000000Y-29750000D03*
X14999999Y-29750000D03*
D10*
X-10750000Y-36000000D03*
X-24250000Y-36000000D03*
D11*
X-22000000Y-36000000D03*
X-13000000Y-36000000D03*
X-20000001Y-29750000D03*
X-15000000Y-29750000D03*
X-20000000Y-42250000D03*
X-14999999Y-42250000D03*
D10*
X-20125000Y-15154329D03*
X-26875000Y-26845671D03*
D11*
X-25750000Y-24897114D03*
X-21250000Y-17102886D03*
X-30162659Y-20040064D03*
X-27662659Y-15709936D03*
X-19337341Y-26290064D03*
X-16837341Y-21959936D03*
D12*
X5842000Y-5730000D03*
X-10160000Y27290000D03*
X-10160000Y24750000D03*
X-10160000Y22210000D03*
X-10160000Y19670000D03*
X-10160000Y17130000D03*
X-10160000Y14590000D03*
X-10160000Y12050000D03*
X-10160000Y9510000D03*
X-10160000Y6970000D03*
X-10160000Y4430000D03*
X-10160000Y1890000D03*
X-10160000Y-650000D03*
X10160000Y-650000D03*
X10160000Y1890000D03*
X10160000Y4430000D03*
X10160000Y6970000D03*
X10160000Y9510000D03*
X10160000Y12050000D03*
X10160000Y14590000D03*
X10160000Y17130000D03*
X10160000Y19670000D03*
X10160000Y22210000D03*
X10160000Y24750000D03*
X10160000Y27290000D03*
X10160000Y29830000D03*
X10160000Y32370000D03*
X10160000Y34910000D03*
X10160000Y37450000D03*
D11*
X-19250000Y-4000000D03*
X-16750000Y-4000000D03*
D13*
X0Y-16750000D03*
X0Y-21750000D03*
D14*
X34290000Y-28649409D03*
D15*
X34290000Y-28649409D02*
X34290000Y-28649409D01*
D14*
X31750000Y-24250000D03*
X-31750000Y-24250000D03*
X-34290000Y-28649408D03*
D15*
X-34290000Y-28649408D02*
X-34290000Y-28649408D01*
D14*
X30040000Y-37600592D03*
D15*
X30040000Y-37600592D02*
X30040000Y-37600592D01*
D14*
X27500000Y-42000000D03*
X-27500000Y-42000000D03*
X-30040000Y-37600591D03*
D15*
X-30040000Y-37600591D02*
X-30040000Y-37600591D01*
D16*
X-13500000Y39500000D03*
X13500000Y39500000D03*
M02*
